<?xml version="1.0" encoding="UTF-8"?>
<svg id="Layer_1" data-name="Layer 1" xmlns="http://www.w3.org/2000/svg" xmlns:xlink="http://www.w3.org/1999/xlink" viewBox="0 0 64 64">
  <defs>
    <style>
      .cls-1 {
        fill: url(#linear-gradient);
      }

      .cls-1, .cls-2 {
        stroke-width: 0px;
      }

      .cls-2 {
        fill: #f87bff;
      }
    </style>
    <linearGradient id="linear-gradient" x1="8.8" y1="32" x2="55.2" y2="32" gradientUnits="userSpaceOnUse">
      <stop offset="0" stop-color="#f066a6"/>
      <stop offset="1" stop-color="#9453ef"/>
    </linearGradient>
  </defs>
  <path class="cls-1" d="m28.9,56.1c-.4,0-.9-.1-1.3-.2-1.2-.2-2.4-.4-3.5-.6-2-.4-3.9-1.2-5.8-2.1-1.8-.9-3.4-2-5-3.2-1.4-1.2-2.8-2.5-3.9-3.9-.2-.2-.3-.4-.4-.6,0-.1-.1-.3,0-.5.2-1.2.3-2.3.6-3.5.2-1,.6-2,.9-3,.7-2,1.4-3.9,2.3-5.8.5-1.1,1.3-1.9,2.3-2.5.7-.4,1.2-.8,1.4-1.7.1-.7.6-1.2,1.1-1.8.3-.4.7-.8,1-1.2.6-.9.6-1.6-.2-2.4-.3-.3-.6-.7-.9-1-.6-.6-1-1.4-1.2-2.2,0-.3-.1-.6-.1-.9,0-.9-.1-1.8,0-2.8,0-1.4.4-2.6,1.4-3.7.5-.6,1.1-1.1,1.8-1.5.4-.2.7-.5,1.1-.8.6-.5,1.2-.9,2-1.1.3,0,.4-.3.5-.5.1-.5.3-.6.8-.6.4,0,.7.1,1.1.1.2,0,.4,0,.6,0,.5-.2.8-.1,1.2.2.8.8,1.1,1.8,1.3,2.9.2.8.5,1.7,1.2,2.2.5.4.8.9,1,1.5.1.5.4.8.8,1,.4.2.8.5,1.1.8.4.3.4.5.2.9-.2.4-.2.7,0,1.1.1.3.1.6.1.9,0,.3,0,.6,0,.8,0,.3.1.5.3.7.3.2.4.6.5,1,0,.3.1.7.3,1,.5.8.2,1.7-.7,1.8-.2,0-.5,0-.7,0-.5,0-1,.1-1.5.2-.5.2-.8.5-.9,1.1,0,.3,0,.6,0,.8,0,.5.3.9.7,1.1.3.2.6.4.9.6.5.4,1.1.7,1.8.7,1,0,1.9,0,2.9,0,.5,0,.9,0,1.4.3.4.2.9.3,1.3.6.4.2.7.6,1.1.8,1.3,1,2.5,2.3,3.7,3.5.9.9,2,1.4,3.2,1.9.2,0,.4.1.6.2.2,0,.3,0,.3-.2,0-.2,0-.5,0-.7-.1-1.4-.3-2.8-.4-4.2,0-.8-.2-1.6-.3-2.4-.2-1.3-.5-2.6-1.1-3.9-.1-.3-.4-.6-.7-.7-.8-.4-1.6-.8-2.4-1.2-.4-.2-.9-.3-1.4-.3-.7,0-1.1-.5-1.4-1-.2-.3-.5-.7-.7-1-.1-.2-.3-.2-.5,0-.6.5-1.1.3-1.7,0-1-.5-1.2-2.1-.4-2.8.4-.3,1-.4,1.4-.1.6.3,1.1.5,1.8.4.3,0,.6,0,.9,0,.3,0,.6,0,.8-.4.3-.6.7-.6,1.2-.1,0,0,.1.1.2.2.1.2.2.2.4,0,.4-.4.7-.3,1.1,0,.3.2.7.3,1.1.3.4,0,.7.2,1,.4.3.3.6.3,1,.4,1.5.2,3.1.4,4.5,1.1.7.3,1.2,1,1.6,1.7.6,1,.9,2.1,1.2,3.2.4,1.2.6,2.4,1.2,3.6,0,.2,0,.4,0,.6,0,0,0,0,0,0,0-.1-.2-.3-.3-.4-.6-1-.9-2.1-1.2-3.1-.2-.8-.5-1.7-.7-2.5-.2-.7-.7-1.2-1.1-1.7-.1-.1-.2-.3-.3-.4-.3-.3-.6-.5-1-.4-.6,0-1.2,0-1.7,0-.3,0-.6,0-.9,0,.2.5.4,1,.5,1.5.2.7.4,1.4.7,2.1.2.7.4,1.3.6,2,.5,1.6,1,3.3,1.4,4.9.4,1.4.9,2.9,1.3,4.3.5,1.5.9,3.1,1.1,4.7,0,.4,0,.8-.2,1.2-.2.6-.4,1.3-.6,1.9,0,.2-.3.5-.4.6-.2.3-.5.3-.9.3-.7-.1-1.4,0-2.1-.2-1-.2-2-.5-2.9-.8-1.2-.4-2.3-.9-3.4-1.4-.2,0-.4-.2-.6-.3-.2-.2-.4,0-.6.1-.1.2-.3.5-.4.7-.3.6-.7.7-1.3.4-.3-.2-.6-.3-.9-.5-.3-.1-.5-.2-.8,0-.2.1-.5.2-.7.3,0,0-.1.2-.1.3,0,2-.2,3.9-.2,5.9,0,1.9.2,3.8.3,5.7,0,.2,0,.3-.2.3-1.1.2-2.1.4-3.2.6-.6,0-1.2,0-1.7.1-.1,0-.3,0-.4,0h-3.2Z"/>
  <circle class="cls-2" cx="36.4" cy="19.4" r="2.5"/>
</svg>