<?xml version="1.0" encoding="UTF-8"?>
<svg id="Layer_1" data-name="Layer 1" xmlns="http://www.w3.org/2000/svg" xmlns:xlink="http://www.w3.org/1999/xlink" viewBox="0 0 64 64">
  <defs>
    <style>
      .cls-1 {
        fill: url(#linear-gradient);
        stroke-width: 0px;
      }
    </style>
    <linearGradient id="linear-gradient" x1="9.3" y1="32" x2="54.7" y2="32" gradientUnits="userSpaceOnUse">
      <stop offset="0" stop-color="#f87bff"/>
      <stop offset="1" stop-color="#9453ef"/>
    </linearGradient>
  </defs>
  <path class="cls-1" d="m50.4,24.5L22.4,8.2c-5.8-3.4-13,.8-13,7.5v32.7c0,6.7,7.3,10.8,13,7.5l28-16.3c5.7-3.3,5.7-11.6,0-15h0Zm-32.2,16.6c0,.9-.7,1.7-1.7,1.7s-1.7-.7-1.7-1.7v-18.3c0-.9.7-1.7,1.7-1.7s1.7.7,1.7,1.7v18.3Zm6,5c0,.9-.7,1.7-1.7,1.7s-1.7-.7-1.7-1.7v-28.3c0-.9.7-1.7,1.7-1.7s1.7.7,1.7,1.7v28.3Zm6.3-11.7c0,.9-.7,1.7-1.7,1.7s-1.7-.7-1.7-1.7v-5c0-.9.7-1.7,1.7-1.7s1.7.7,1.7,1.7v5Zm3.5-.8c-.9,0-1.7-.7-1.7-1.7s.7-1.7,1.7-1.7,1.7.7,1.7,1.7-.7,1.7-1.7,1.7Zm6.8,3.2c0,.9-.7,1.7-1.7,1.7s-1.7-.7-1.7-1.7v-9.7c0-.9.7-1.7,1.7-1.7s1.7.7,1.7,1.7v9.7Zm5.7-2.3c0,.9-.7,1.7-1.7,1.7s-1.7-.7-1.7-1.7v-5c0-.9.7-1.7,1.7-1.7s1.7.7,1.7,1.7v5Z"/>
</svg>