<svg id="banner-02" xmlns="http://www.w3.org/2000/svg" xmlns:xlink="http://www.w3.org/1999/xlink" width="529" height="458.318" viewBox="0 0 529 458.318">
  <defs>
    <linearGradient id="linear-gradient" x1="0.5" y1="1" x2="0.5" gradientUnits="objectBoundingBox">
      <stop offset="0" stop-color="gray" stop-opacity="0.251"/>
      <stop offset="0.54" stop-color="gray" stop-opacity="0.122"/>
      <stop offset="1" stop-color="gray" stop-opacity="0.102"/>
    </linearGradient>
    <linearGradient id="linear-gradient-2" x1="0.5" y1="1" x2="0.5" y2="0" xlink:href="#linear-gradient"/>
    <linearGradient id="linear-gradient-3" x1="0.5" y1="1" x2="0.5" y2="0" xlink:href="#linear-gradient"/>
  </defs>
  <g id="Group_35" data-name="Group 35" transform="translate(71.519 81.692)" opacity="0.5">
    <rect id="Rectangle_3488" data-name="Rectangle 3488" width="2.046" height="11.593" transform="translate(4.774)" fill="#47e6b1"/>
    <rect id="Rectangle_3489" data-name="Rectangle 3489" width="2.046" height="11.593" transform="translate(11.593 4.774) rotate(90)" fill="#47e6b1"/>
  </g>
  <g id="Group_36" data-name="Group 36" transform="translate(148.075 340.741)" opacity="0.5">
    <rect id="Rectangle_3490" data-name="Rectangle 3490" width="2.046" height="11.593" transform="translate(4.78)" fill="#47e6b1"/>
    <rect id="Rectangle_3491" data-name="Rectangle 3491" width="2.046" height="11.593" transform="translate(11.593 4.774) rotate(90)" fill="#47e6b1"/>
  </g>
  <g id="Group_37" data-name="Group 37" transform="translate(42.447 202.481)" opacity="0.5">
    <rect id="Rectangle_3492" data-name="Rectangle 3492" width="2.046" height="11.593" transform="translate(4.774)" fill="#47e6b1"/>
    <rect id="Rectangle_3493" data-name="Rectangle 3493" width="2.046" height="11.593" transform="translate(11.593 4.774) rotate(90)" fill="#47e6b1"/>
  </g>
  <g id="Group_38" data-name="Group 38" transform="translate(411.288)" opacity="0.5">
    <rect id="Rectangle_3494" data-name="Rectangle 3494" width="2.046" height="11.593" transform="translate(4.774)" fill="#47e6b1"/>
    <rect id="Rectangle_3495" data-name="Rectangle 3495" width="2.046" height="11.593" transform="translate(11.593 4.774) rotate(90)" fill="#47e6b1"/>
  </g>
  <g id="Group_39" data-name="Group 39" transform="translate(55.41 28.832)" opacity="0.5">
    <rect id="Rectangle_3496" data-name="Rectangle 3496" width="2.046" height="11.593" transform="translate(4.78)" fill="#47e6b1"/>
    <rect id="Rectangle_3497" data-name="Rectangle 3497" width="2.046" height="11.593" transform="translate(11.593 4.774) rotate(90)" fill="#47e6b1"/>
  </g>
  <path id="Path_1100" data-name="Path 1100" d="M340.2,556.351a2.507,2.507,0,0,1-1.395-3.029,1.222,1.222,0,0,0,.055-.276h0a1.229,1.229,0,0,0-2.255-.836h0a1.234,1.234,0,0,0-.141.246,2.507,2.507,0,0,1-3.029,1.395,1.228,1.228,0,0,0-.276-.055h0a1.229,1.229,0,0,0-.836,2.255h0a1.235,1.235,0,0,0,.246.141,2.507,2.507,0,0,1,1.395,3.029,1.233,1.233,0,0,0-.055.276h0a1.229,1.229,0,0,0,2.255.836h0a1.23,1.23,0,0,0,.141-.246,2.507,2.507,0,0,1,3.029-1.395,1.23,1.23,0,0,0,.277.055h0a1.229,1.229,0,0,0,.835-2.255h0A1.23,1.23,0,0,0,340.2,556.351Z" transform="translate(-238.764 -258.253)" fill="#4d8af0" opacity="0.5"/>
  <path id="Path_1101" data-name="Path 1101" d="M323.7,735.7a2.507,2.507,0,0,1-1.395-3.029,1.227,1.227,0,0,0,.055-.276h0a1.229,1.229,0,0,0-2.255-.836h0a1.224,1.224,0,0,0-.141.246,2.507,2.507,0,0,1-3.023,1.4,1.224,1.224,0,0,0-.276-.055h0a1.229,1.229,0,0,0-.836,2.255h0a1.226,1.226,0,0,0,.246.141,2.507,2.507,0,0,1,1.395,3.029,1.224,1.224,0,0,0-.055.276h0a1.229,1.229,0,0,0,2.255.836h0a1.23,1.23,0,0,0,.141-.246,2.507,2.507,0,0,1,3.029-1.395,1.234,1.234,0,0,0,.276.055h0a1.229,1.229,0,0,0,.836-2.255h0a1.232,1.232,0,0,0-.252-.148Z" transform="translate(-232.405 -323.387)" fill="#4d8af0" opacity="0.5"/>
  <path id="Path_1102" data-name="Path 1102" d="M930.7,338.7a2.507,2.507,0,0,1-1.395-3.029,1.223,1.223,0,0,0,.055-.276h0a1.229,1.229,0,0,0-2.255-.836h0a1.236,1.236,0,0,0-.141.246,2.506,2.506,0,0,1-3.023,1.4,1.228,1.228,0,0,0-.277-.055h0a1.229,1.229,0,0,0-.836,2.255h0a1.235,1.235,0,0,0,.246.141,2.507,2.507,0,0,1,1.395,3.029,1.225,1.225,0,0,0-.055.276h0a1.229,1.229,0,0,0,2.255.836h0a1.237,1.237,0,0,0,.141-.246,2.507,2.507,0,0,1,3.029-1.395,1.225,1.225,0,0,0,.277.055h0a1.229,1.229,0,0,0,.835-2.255h0A1.227,1.227,0,0,0,930.7,338.7Z" transform="translate(-453.068 -177.873)" fill="#4d8af0" opacity="0.5"/>
  <path id="Path_1103" data-name="Path 1103" d="M903.226,528.041a2.506,2.506,0,0,1-1.395-3.029,1.234,1.234,0,0,0,.055-.276h0a1.229,1.229,0,0,0-2.255-.836h0a1.228,1.228,0,0,0-.141.246,2.506,2.506,0,0,1-3.029,1.395,1.23,1.23,0,0,0-.276-.055h0a1.229,1.229,0,0,0-.836,2.255h0a1.221,1.221,0,0,0,.246.141,2.507,2.507,0,0,1,1.395,3.029,1.228,1.228,0,0,0-.055.276h0a1.229,1.229,0,0,0,2.255.835h0a1.223,1.223,0,0,0,.141-.246,2.507,2.507,0,0,1,3.029-1.395,1.228,1.228,0,0,0,.276.055h0a1.229,1.229,0,0,0,.836-2.255h0A1.229,1.229,0,0,0,903.226,528.041Z" transform="translate(-442.471 -247.798)" fill="#4d8af0" opacity="0.5"/>
  <path id="Path_1104" data-name="Path 1104" d="M923.7,150.711a2.507,2.507,0,0,1-1.395-3.029,1.235,1.235,0,0,0,.055-.276h0a1.229,1.229,0,0,0-2.255-.836h0a1.22,1.22,0,0,0-.141.246,2.507,2.507,0,0,1-3.029,1.395,1.232,1.232,0,0,0-.276-.055h0a1.229,1.229,0,0,0-.836,2.255h0a1.231,1.231,0,0,0,.246.141,2.507,2.507,0,0,1,1.395,3.029,1.228,1.228,0,0,0-.055.276h0a1.229,1.229,0,0,0,2.255.836h0a1.233,1.233,0,0,0,.141-.246,2.507,2.507,0,0,1,3.029-1.395,1.226,1.226,0,0,0,.276.055h0a1.229,1.229,0,0,0,.836-2.255h0A1.23,1.23,0,0,0,923.7,150.711Z" transform="translate(-450.365 -109.419)" fill="#4d8af0" opacity="0.5"/>
  <path id="Path_1105" data-name="Path 1105" d="M987.916,642.761a2.507,2.507,0,0,1-1.395-3.029,1.227,1.227,0,0,0,.055-.276h0a1.229,1.229,0,0,0-2.255-.836h0a1.222,1.222,0,0,0-.141.246,2.507,2.507,0,0,1-3.029,1.395,1.23,1.23,0,0,0-.276-.055h0a1.229,1.229,0,0,0-.836,2.255h0a1.23,1.23,0,0,0,.246.141,2.507,2.507,0,0,1,1.395,3.029,1.235,1.235,0,0,0-.055.276h0a1.229,1.229,0,0,0,2.255.836h0a1.231,1.231,0,0,0,.141-.246,2.506,2.506,0,0,1,3.029-1.395,1.226,1.226,0,0,0,.276.055h0a1.229,1.229,0,0,0,.836-2.255h0A1.221,1.221,0,0,0,987.916,642.761Z" transform="translate(-475.13 -290.165)" fill="#4d8af0" opacity="0.5"/>
  <circle id="Ellipse_15" data-name="Ellipse 15" cx="4.092" cy="4.092" r="4.092" transform="translate(0 158.37)" fill="#f55f44" opacity="0.5"/>
  <circle id="Ellipse_16" data-name="Ellipse 16" cx="4.092" cy="4.092" r="4.092" transform="translate(469.996 87.932)" fill="#f55f44" opacity="0.5"/>
  <circle id="Ellipse_17" data-name="Ellipse 17" cx="4.608" cy="4.608" r="4.608" transform="translate(277.118 244.998)" fill="#f55f44" opacity="0.5"/>
  <circle id="Ellipse_18" data-name="Ellipse 18" cx="4.608" cy="4.608" r="4.608" transform="translate(277.118 244.998)" fill="#f55f44" opacity="0.5"/>
  <circle id="Ellipse_19" data-name="Ellipse 19" cx="4.092" cy="4.092" r="4.092" transform="translate(520.817 214.22)" fill="#f55f44" opacity="0.5"/>
  <circle id="Ellipse_20" data-name="Ellipse 20" cx="4.608" cy="4.608" r="4.608" transform="translate(180.787 24.434)" fill="#47e6b1" opacity="0.5"/>
  <circle id="Ellipse_21" data-name="Ellipse 21" cx="4.092" cy="4.092" r="4.092" transform="translate(452.584 389.306)" fill="#f55f44" opacity="0.5"/>
  <path id="Path_1106" data-name="Path 1106" d="M486.632,468a18.961,18.961,0,0,0,8.313,21.282c2.974,1.732,6.4,2.6,9.277,4.485,6.26,4.079,8.73,11.888,10.764,19.076,2.335,8.263,4.675,17,2.537,25.312-1.364,5.3-4.466,9.99-6.23,15.175a31.664,31.664,0,0,0-1.505,13.516,11.53,11.53,0,0,0,2.519,6.721c2.4,2.58,6.254,2.967,9.719,3.588a47.171,47.171,0,0,1,33.913,26.258" transform="translate(-292.554 -224.842)" fill="none" stroke="#707070" stroke-miterlimit="10" stroke-width="2"/>
  <path id="Path_1107" data-name="Path 1107" d="M487.841,468a18.961,18.961,0,0,0,8.313,21.282c2.974,1.732,6.4,2.6,9.277,4.485,6.261,4.079,8.73,11.888,10.764,19.076,2.335,8.263,4.675,17,2.537,25.312-1.364,5.3-4.467,9.99-6.23,15.175A31.662,31.662,0,0,0,511,566.846a11.53,11.53,0,0,0,2.519,6.721c2.4,2.58,6.254,2.967,9.719,3.588a47.171,47.171,0,0,1,33.913,26.258" transform="translate(-292.998 -224.842)" fill="none" stroke="#535461" stroke-miterlimit="10" stroke-width="2"/>
  <path id="Path_1108" data-name="Path 1108" d="M629.469,372.4c-5.972,8.325-12.171,17.276-12.681,27.512-.78,15.722,11.8,28.581,17.411,43.289a51.447,51.447,0,0,1-1.726,40.241c-2.74,5.664-6.647,11.292-6.144,17.565.289,3.828,2.206,7.311,3.748,10.831a61.068,61.068,0,0,1-3.545,55.14" transform="translate(-341.404 -188.629)" fill="none" stroke="#707070" stroke-miterlimit="10" stroke-width="2"/>
  <path id="Path_1109" data-name="Path 1109" d="M630.665,372.4c-5.966,8.355-12.165,17.282-12.687,27.512-.78,15.722,11.8,28.581,17.411,43.289a51.448,51.448,0,0,1-1.727,40.241c-2.74,5.664-6.647,11.292-6.144,17.565.289,3.828,2.206,7.311,3.748,10.831a61.068,61.068,0,0,1-3.545,55.14" transform="translate(-341.843 -188.629)" fill="none" stroke="#535461" stroke-miterlimit="10" stroke-width="2"/>
  <path id="Path_1110" data-name="Path 1110" d="M763.316,494.28l2.888,23.537c.381,3.127.707,6.537-.971,9.216-1.591,2.525-4.577,3.729-6.9,5.6-7.624,6.144-6.93,17.884-4.3,27.309s6.414,19.549,2.759,28.617c-1.511,3.742-4.178,6.893-6.144,10.407a31.868,31.868,0,0,0-3.809,19.771" transform="translate(-389.316 -234.691)" fill="none" stroke="#707070" stroke-miterlimit="10" stroke-width="2"/>
  <path id="Path_1111" data-name="Path 1111" d="M764.486,494.28l2.888,23.537c.381,3.127.707,6.537-.971,9.216-1.591,2.525-4.577,3.729-6.9,5.6-7.624,6.144-6.93,17.884-4.3,27.309s6.414,19.549,2.758,28.617c-1.511,3.742-4.178,6.893-6.144,10.407a31.868,31.868,0,0,0-3.809,19.771" transform="translate(-389.748 -234.691)" fill="none" stroke="#535461" stroke-miterlimit="10" stroke-width="2"/>
  <g id="Group_40" data-name="Group 40" transform="translate(131.685 5.773)" opacity="0.7">
    <path id="Path_1112" data-name="Path 1112" d="M694.1,243.9a69.793,69.793,0,0,0-91.357-66.346,83.853,83.853,0,0,0,.891-11.839,69.75,69.75,0,0,0-139.327-5,69.793,69.793,0,0,0-91.394,66.352c0,35.019,25.8,84.783,59.379,93.6l5.228,2.986-2.838,9.725h16.809l-3.649-9.738,5.2-2.974c25.963-6.813,47.251-38.091,55.588-68.091a50.991,50.991,0,0,0,14.88,6.758l5.228,2.986-2.8,9.7h16.809L539.1,262.28l5.2-2.974a48.667,48.667,0,0,0,11.059-4.491c4.491,33.655,28.384,74.745,58.617,82.676l5.228,2.986-2.838,9.725h16.809l-3.661-9.738,5.2-2.974C668.325,328.675,694.1,278.892,694.1,243.9Z" transform="translate(-372.91 -95.856)" fill="url(#linear-gradient)"/>
  </g>
  <path id="Path_1113" data-name="Path 1113" d="M314.549,384.016H298.28l2.851-9.756h9.756Z" transform="translate(-110.102 -138.21)" fill="#f55f44"/>
  <path id="Path_1114" data-name="Path 1114" d="M516.39,266.793c0,37.28-30.221,91.892-67.495,91.892S381.4,304.067,381.4,266.793a67.5,67.5,0,1,1,135,0Z" transform="translate(-253.559 -127.168)" fill="#f55f44"/>
  <path id="Path_1115" data-name="Path 1115" d="M309.1,372.88h-9.756l-5.7-3.25H314.8Z" transform="translate(-108.346 -136.589)" fill="#535461"/>
  <path id="Path_1116" data-name="Path 1116" d="M431.131,223.78s-28.464,15.451-32.531,46.355" transform="translate(-260.822 -136.966)" fill="#fff" opacity="0.1"/>
  <path id="Path_1117" data-name="Path 1117" d="M458.219,287.436H441.95l2.851-9.756h9.756Z" transform="translate(-163.135 -102.544)" fill="#4d8af0"/>
  <path id="Path_1118" data-name="Path 1118" d="M660.06,170.213c0,37.28-30.221,91.892-67.495,91.892s-67.495-54.618-67.495-91.892a67.5,67.5,0,0,1,135,0Z" transform="translate(-305.852 -92.728)" fill="#f16cdf"/>
  <path id="Path_1119" data-name="Path 1119" d="M452.772,276.3h-9.756l-5.7-3.256h21.147Z" transform="translate(-161.354 -100.896)" fill="#535461"/>
  <path id="Path_1120" data-name="Path 1120" d="M574.8,127.2s-28.464,15.451-32.531,46.354" transform="translate(-313.774 -102.17)" fill="#fff" opacity="0.1"/>
  <path id="Path_1121" data-name="Path 1121" d="M600.679,410.582H584.41l2.851-9.762h9.756Z" transform="translate(-215.72 -148.018)" fill="#3ad29f"/>
  <path id="Path_1122" data-name="Path 1122" d="M802.516,293.353c0,37.28-30.221,91.892-67.495,91.892s-67.5-54.612-67.5-91.892a67.5,67.5,0,0,1,135,0Z" transform="translate(-357.7 -136.751)" fill="#3ad29f"/>
  <path id="Path_1123" data-name="Path 1123" d="M595.231,399.44h-9.756l-5.7-3.25h21.147Z" transform="translate(-213.917 -146.403)" fill="#535461"/>
  <path id="Path_1124" data-name="Path 1124" d="M717.261,250.34S688.8,265.791,684.73,296.694" transform="translate(-366.28 -146.734)" fill="#fff" opacity="0.1"/>
  <g id="Group_41" data-name="Group 41" transform="translate(246.604 269.838)" opacity="0.5">
    <path id="Path_1125" data-name="Path 1125" d="M647.8,518.584c-3.914-3.926-9.621-5.486-16.072-4.4a32.248,32.248,0,0,0-17,9.216,19.872,19.872,0,0,0-3.557,4.878,19.912,19.912,0,0,0-3.526-5.056h0a32.011,32.011,0,0,0-16.865-9.486c-6.426-1.229-12.158.264-16.146,4.122s-5.621,9.541-4.626,16a32.208,32.208,0,0,0,8.964,17.129c10.186,10.512,30.516,6.408,31.376,6.224l.252-.055.78.178c.86.2,21.116,4.651,31.48-5.683a32.387,32.387,0,0,0,9.259-16.975C653.259,528.223,651.717,522.516,647.8,518.584Zm-40.868,32.562c-4.915.664-17.159,1.561-23.236-4.712a25.7,25.7,0,0,1-7.194-13.578c-.664-4.3.295-7.987,2.715-10.309a9.079,9.079,0,0,1,3.312-2.028,13.664,13.664,0,0,1,7.078-.356,25.669,25.669,0,0,1,13.344,7.618c6.076,6.23,4.8,18.468,3.981,23.358Zm38.773-17.577a25.644,25.644,0,0,1-7.428,13.449c-6.187,6.144-18.431,5.056-23.315,4.3-.731-4.915-1.8-17.135,4.387-23.3a25.627,25.627,0,0,1,13.473-7.372,13.663,13.663,0,0,1,7.071.479,9.08,9.08,0,0,1,3.281,2.089c2.371,2.378,3.268,6.052,2.531,10.352Z" transform="translate(-569.727 -513.316)" fill="url(#linear-gradient-2)"/>
  </g>
  <path id="Path_1126" data-name="Path 1126" d="M613.469,556.48l-1.935.405c-.823.172-20.274,4.1-30.024-5.959a31.1,31.1,0,0,1-8.6-16.391c-.958-6.187.615-11.624,4.424-15.316s9.3-5.093,15.445-3.944a30.823,30.823,0,0,1,16.115,9.087h0c9.744,10.057,5.21,29.379,5.013,30.2Zm-28.587-34.706a8.687,8.687,0,0,0-3.17,1.942c-2.31,2.242-3.232,5.744-2.6,9.867A24.612,24.612,0,0,0,586,546.577c5.818,6,17.534,5.142,22.234,4.51.78-4.675,2.009-16.361-3.809-22.363h0a24.547,24.547,0,0,0-12.773-7.286A13.075,13.075,0,0,0,584.882,521.774Z" transform="translate(-324.824 -244.097)" fill="#f16cdf"/>
  <path id="Path_1127" data-name="Path 1127" d="M633.5,556.893l-.43-1.929c-.184-.823-4.387-20.219,5.529-30.1h0a30.871,30.871,0,0,1,16.269-8.8c6.144-1.044,11.63.449,15.359,4.208s5.222,9.216,4.159,15.359a30.844,30.844,0,0,1-8.859,16.238c-9.916,9.885-29.3,5.622-30.1,5.437Zm29.183-34.239a13.075,13.075,0,0,0-6.758-.461,24.638,24.638,0,0,0-12.9,7.065h0c-5.923,5.9-4.915,17.6-4.2,22.3,4.688.713,16.391,1.776,22.308-4.122a24.565,24.565,0,0,0,7.108-12.9c.707-4.11-.154-7.63-2.427-9.91A8.686,8.686,0,0,0,662.68,522.654Z" transform="translate(-346.69 -244.414)" fill="#f16cdf"/>
  <g id="Group_42" data-name="Group 42" transform="translate(192.781 311.348)" opacity="0.5">
    <path id="Path_1128" data-name="Path 1128" d="M490.039,487.86H301.42V525.6h9.8V634.83h169.02V525.6h9.8Z" transform="translate(-301.42 -487.86)" fill="url(#linear-gradient-3)"/>
  </g>
  <rect id="Rectangle_3498" data-name="Rectangle 3498" width="164.744" height="133.706" transform="translate(204.657 322.757)" fill="#535461"/>
  <rect id="Rectangle_3499" data-name="Rectangle 3499" width="31.038" height="109.825" transform="translate(271.278 346.632)" fill="#f16cdf"/>
  <rect id="Rectangle_3500" data-name="Rectangle 3500" width="164.744" height="33.428" transform="translate(204.657 312.52)" opacity="0.1"/>
  <rect id="Rectangle_3501" data-name="Rectangle 3501" width="183.845" height="33.428" transform="translate(195.158 310.063)" fill="#535461"/>
  <rect id="Rectangle_3502" data-name="Rectangle 3502" width="31.038" height="33.428" transform="translate(271.278 310.063)" fill="#f16cdf"/>
</svg>
