<svg xmlns="http://www.w3.org/2000/svg" xmlns:xlink="http://www.w3.org/1999/xlink" width="547.357" height="457.98" viewBox="0 0 547.357 457.98">
  <defs>
    <linearGradient id="linear-gradient" x1="0.5" y1="1" x2="0.5" gradientUnits="objectBoundingBox">
      <stop offset="0" stop-color="gray" stop-opacity="0.251"/>
      <stop offset="0.54" stop-color="gray" stop-opacity="0.122"/>
      <stop offset="1" stop-color="gray" stop-opacity="0.102"/>
    </linearGradient>
  </defs>
  <g id="banner-03" transform="translate(-46.495 -13.015)">
    <path id="Path_1100" data-name="Path 1100" d="M319.536,706.07c-5.053-.511-10.331-1.058-15.116.279s-8.75,5.243-7.329,8.976c3.174,8.322,21.8,2.526,30.393,8.215,3.067,2.033,4.262,5.231,6.658,7.728,3.876,4.054,10.539,5.944,16.971,6.985,38.638,6.247,82.686-9.832,116.55,5.653,10.967,5.017,19.616,13,31.642,16.347,15.931,4.434,33.377-.3,49.861-3.341a243.883,243.883,0,0,1,62.35-3.269c15.414,1.189,35.916,1.587,40.849-9.606,3.174-7.2-3.543-15.212-12.459-18.618s-19.355-3.3-29.312-2.972c-19.218.69-38.442,2.081-57.66,1.4-37.164-1.32-72.271-16.05-108.46-16.537C402.329,706.8,361.878,710.338,319.536,706.07Z" transform="translate(-175.496 -310.484)" fill="#f16cdf" opacity="0.1"/>
    <path id="Path_1101" data-name="Path 1101" d="M265.017,388.539c-5.944,6.01-6.307,15.223-6.307,15.223s9.208-.523,15.128-6.539S280.151,382,280.151,382,270.938,382.541,265.017,388.539Z" transform="translate(-161.534 -188.193)" fill="#57b894"/>
    <path id="Path_1102" data-name="Path 1102" d="M309.17,132.1c2.1,8.173,9.8,13.256,9.8,13.256s4.3-8.162,2.2-16.335-9.8-13.25-9.8-13.25S307.048,123.932,309.17,132.1Z" transform="translate(-181.108 -86.597)" fill="#57b894"/>
    <path id="Path_1103" data-name="Path 1103" d="M890.1,176.595c-5.944,6.01-6.313,15.223-6.313,15.223s9.214-.523,15.134-6.539,6.307-15.229,6.307-15.229S896.023,170.615,890.1,176.595Z" transform="translate(-399.671 -108.611)" fill="#57b894"/>
    <path id="Path_1104" data-name="Path 1104" d="M589.58,312.706c-.69,8.405,4.916,15.729,4.916,15.729s6.735-6.307,7.424-14.718S597,298,597,298,590.269,304.3,589.58,312.706Z" transform="translate(-286.747 -155.835)" fill="#57b894"/>
    <path id="Path_1105" data-name="Path 1105" d="M917.64,511.012c-.69,8.405,4.916,15.729,4.916,15.729s6.735-6.307,7.424-14.712-4.916-15.729-4.916-15.729S918.33,502.607,917.64,511.012Z" transform="translate(-410.195 -231.907)" fill="#57b894"/>
    <path id="Path_1107" data-name="Path 1107" d="M668.523,250.665a5.419,5.419,0,0,0-3.65,3.337l-.594-.1-2.217-.37s-11.746-1.006-13.939-.851-3.567-2.091-3.567-2.091l-8.732-7.668-.678-.617c.945-.37,1.534-.561,1.534-.561s-23.433-30.228-28.485-30.814-13.4-7.643-13.488-7.711l-.089-.481c-.184-1.018-.321-2.048-.422-3.084l1.242.79h0c0-.358,0-.716.036-1.073h0a20,20,0,0,1,3.5-10.364c2.443-3.516,6.057-6.28,7.5-10.333a15.451,15.451,0,0,0,.767-5.422,18.6,18.6,0,0,0-2.437-9.432,11.363,11.363,0,0,0-7.668-5.49c-.832-.136-1.682-.154-2.5-.352-4.88-1.191-6.675-7.983-11.419-9.648a9.3,9.3,0,0,0-6.806.7c-2.134.962-4.066,2.344-6.152,3.411s-4.452,1.851-6.349,3.362a6.71,6.71,0,0,0-.594.531h0l-.374.376h0a13.916,13.916,0,0,0-2.027,2.745l-.089.154c-.059.1-.113.216-.166.327s-.089.173-.125.259-.1.2-.137.3l-.125.3-.107.284c-.036.1-.077.21-.107.321s-.059.179-.083.271l-.089.327-.053.265a2.257,2.257,0,0,1-.059.339,1.132,1.132,0,0,0,0,.247v1.141a3.869,3.869,0,0,0,.107.537h0a10.784,10.784,0,0,0,2.271,3.307c-.095.093-.19.179-.285.278a22.04,22.04,0,0,0-6,19.321,19.684,19.684,0,0,0-3.465-2.178,29.345,29.345,0,0,0-12.893-3.084c-7.282-.086-17.512-2.924-17.512-2.924a7.389,7.389,0,0,1,.595,1.635c-.446-.265-.927-.549-1.456-.845a41.634,41.634,0,0,0-13.672-4.75s-3.032.438-3.436-6.169a28.96,28.96,0,0,0-1.07-6.089,107.223,107.223,0,0,1-3.6-18.507l-1.016-9.7s4.577-25.293,1.825-36.076c.886-3.381.386-6.477-2.532-8.7-11.514-8.8-23.129,25.441-23.129,25.441l-4.316,4.349a9.061,9.061,0,0,0-3.662-1.45s-2.324,2.468-3.941,9.2c-.856,3.572-6.705,9.537-12,14.343-3.757,3.411-7.383,6.958-11,10.518-2.675,2.64-8.637,6.416-21.643,8.55-2.039.333-3.894.648-5.588.938a18.733,18.733,0,0,0,.654-4.9,18.228,18.228,0,0,0-13.886-17.847,4.776,4.776,0,0,0,0-1.3,5.452,5.452,0,0,0-1.314-2.468c-2.74-3.516-5.713-7.131-9.79-8.8a12.332,12.332,0,0,0-5.285-.882h-1.45a13.4,13.4,0,0,0-9.9,5.355c-1.462,2.03-2.342,4.435-3.6,6.6a28.744,28.744,0,0,1-9.85,9.543c-2.348,1.474-4.815,2.745-7.032,4.417-8.043,6.064-11.752,17.273-9.731,27.291.892,4.4,2.776,8.729,2.271,13.189-.4,3.461-2.193,6.57-4.024,9.506s-3.769,5.922-4.494,9.321.036,7.4,2.782,9.463a21.9,21.9,0,0,1,3.1,2.147,10.36,10.36,0,0,1,1.427,2.32,22.387,22.387,0,0,0,13.832,11.153,9.756,9.756,0,0,0,2.829.321h.285c2.182.142,4.417-.463,5.148-2.468a5.73,5.73,0,0,1,.493-1.308,1.481,1.481,0,0,1,.862-.617,7.739,7.739,0,0,1,2.015.79,24.931,24.931,0,0,0,9.8,2.906,13.3,13.3,0,0,0,1.718.031,7.344,7.344,0,0,0,3.5-.518,7.585,7.585,0,0,0,2.693-2.394c.155-.2.3-.419.446-.617a52.4,52.4,0,0,1-4.387,14.189s-3.567,6.169-3.311,12.387a12.837,12.837,0,0,0,1.337,6.539s.1-.271.309-.7c1.022,1.777,4.375,7.458,6.574,9.451.107,5.867.083,13.214-.624,14.725-1.189,2.585-4.946,20.974,11.211,33.516l3.727,8.47-15.342,1.129c-1.551-.222-21.614-3.023-21.715,1.055-.1,4.238,3.032,45.508,13.434,42.714,9.7-2.6,6.5-14.639,6.016-16.255l.345-.1-.38-.111,7.757-7.631a3.671,3.671,0,0,0-.594-2.647l.077-.043,18.737.87,4.4,9.932s7.472,11.795,1.415,21.721-12.323,25.447-13.333,34.861c-.826,7.7-6.319,15.262-8.286,17.754-3.513,1.234-16.989,6.724-11.609,15.034,6.158,9.512,26.155,27.618,34.239,27s4.845-6.724,4.845-6.724l-6.759-6.8s-1.189-14.485-.707-18.723a4.357,4.357,0,0,0-2.972-4.46c.636-4.719,2.247-13.664,5.707-18.605,4.845-6.934,20.4-37.445,20.4-37.445s4.946-4.553,3.834-18.1c-.446-5.466-.7-10.265-.838-14.059l17.607.82s18.885-1.968,6.057-22.967-40.094-41.579-40.094-41.579l-.244-13c1.236.321,1.962.481,1.962.481s-.107-.469-.285-1.308l.285.068s-3.941-17.7-5.154-31.77l1.112.531c11.716,14.071,19.616,2.178,19.616,2.178s24.746-36.1,22.321-34.447a2.035,2.035,0,0,1-1.629.1l1.783-5.9s7.306-11.585-3.3-18.1c-8.655-5.318-8.429,11.351-8.055,17.649l-.428-.376s-8.28,12.955-12.727,20.172-8.179,2.468-8.179,2.468l-5.617-6.57a23.867,23.867,0,0,0,1.337-8.217,14.267,14.267,0,0,0-3.8-10.66c-4.286-4.534-5.54-8.926-5.671-12.307a13.441,13.441,0,0,1,1.124-5.071l29.193-16.039s6.158.1,14.439-13.14a226.66,226.66,0,0,1,17.678-24.2s-.172-.259-.47-.685c.3-.364.47-.561.47-.561s-.339-.512-.915-1.3l4.5-5.385a71.694,71.694,0,0,0-.054,7.31l2.33,8.174,1.308,45.508s-1.415,4.318,7.68,8.692c7.692,3.7,19.878,9.87,23.433,11.69-.131.333-.208.512-.208.512l1.058-.074.154.074h0c17.768-1.653,17.161,16.755,17.161,16.755s1.189,37.445-4.238,50.48-4.648,29.167-4.648,29.167.541-2.751,3.567.845c-.059.315-.125.654-.2,1.006-1.736,9.025-5.35,28.223-6.022,36.008a130.4,130.4,0,0,1-3.941,20.974l-1.783,34.441,11.36.574-.125,1.234a3.882,3.882,0,0,1-1.926,3c-3.888,2.19-13.077,9.87-12.34,33.571l-.392,3.812a49.2,49.2,0,0,1-5.546,18.389c-.262.481-.493.944-.69,1.388a1.152,1.152,0,0,1,.309-.66s-5.9,1.271-4.69,17.822,3.032,19.444,5.457,19.648,14.266,3.208,13.63-2.893-1.189-19.654-.4-21.721,4.007-7.643.951-8.988h0a48.979,48.979,0,0,0,1.278-11.6s5.944-9.722,10.195-13.343,6.539-9.772,8.078-17.686c.107-.518,12.525-9.105,10.7-16.237-.321-1.234-.553-2.326-.731-3.313-.077-.438-.143-.851-.2-1.234h.22l2.526-15.725V394.92l1.5.2-.053,1.234-.636,14.682a24.945,24.945,0,0,1-1.783,8.316c-2.675,6.57-7.609,21.2-6.265,37.014l-.143,14.1c-.428.086-6.6,1.6-5.427,17.581,1.189,16.545,3.026,19.445,5.451,19.648s14.266,3.208,13.636-2.893-1.189-19.654-.4-21.721,2.2-7.532-.856-8.877a12.178,12.178,0,0,1,1.272-5.324c1.332-2.35,5.778-13.522,9.125-22.115a81.718,81.718,0,0,0,5.617-27.347v-.315a26.463,26.463,0,0,1,1.932-9.21,60.972,60.972,0,0,0,3.234-10.123c.083-.413.149-.814.208-1.234l2.9.4,9.9-44.478s2.711-24.108,1.385-35c-.053-.45-.113-.864-.184-1.265l.594.056s2.021-5.373,1.415-28.34,4.042-30.228,4.042-30.228c2.508-8.254,5.279-11.018,6.9-11.943h0a2.847,2.847,0,0,1,1.385-.469l7.5,8.9h0l1.379,1.641a.544.544,0,0,0,0-.1l.594.722a6.9,6.9,0,0,1-.048-1.1c4,2.412,13.244,8.05,18.76,12.1,7.193,5.274,9.166,4.657,15.455,4.108,3.816-.327,8.976-2.548,12.435-4.238l.315-.154a14.877,14.877,0,0,0,2.925,1.234s10.153,8.926,11.134-7.366S668.523,250.665,668.523,250.665ZM405.189,440.4a14.387,14.387,0,0,1-2.972-1.3Zm-15.9-176.357.036,2.313-.155.074C389.223,265.613,389.259,264.811,389.294,264.04Zm158.8,206.486v.9A.679.679,0,0,1,548.091,470.526Z" transform="translate(-182.481 -75.572)" fill="url(#linear-gradient)"/>
    <rect id="Rectangle_3488" data-name="Rectangle 3488" width="17.239" height="18.13" transform="translate(382.706 123.755)" fill="#ff7590"/>
    <path id="Path_1108" data-name="Path 1108" d="M660.267,602.507c-1.516,7.579-3.763,13.47-7.924,16.941s-10,12.78-10,12.78c-.1,12.382-3.37,16.145-3.37,16.145l-3.37.892h-8.322a41.187,41.187,0,0,1-1.783-6.634,7.785,7.785,0,0,1,1.308-3.7,46.318,46.318,0,0,0,5.439-17.613l.386-3.656c-.7-22.69,8.322-30.055,12.109-32.153a3.709,3.709,0,0,0,1.884-2.877h0l.672-6.485,22.386,1.1s-.476,1.974.375,6.539c.172.945.4,2,.713,3.168C672.548,593.787,660.362,602.008,660.267,602.507Z" transform="translate(-299.93 -261.302)" fill="#de91a4"/>
    <path id="Path_1109" data-name="Path 1109" d="M725.325,588.4a57.714,57.714,0,0,1-3.168,9.7,24.9,24.9,0,0,0-1.9,8.821q0,.152,0,.3a76.781,76.781,0,0,1-5.51,26.191c-3.287,8.227-7.644,18.933-8.952,21.186-2.176,3.763-.892,10.105-.892,10.105l-12.6-.892.22-21.2c-1.314-15.14,3.525-29.127,6.146-35.446a23.232,23.232,0,0,0,1.783-7.959l.594-14.064.184-4.161s22.279-3.168,24.158,1.884A10.7,10.7,0,0,1,725.325,588.4Z" transform="translate(-325.818 -259.577)" fill="#de91a4"/>
    <path id="Path_1110" data-name="Path 1110" d="M684.456,583.789,661,582.635l.672-6.485,22.41,1.1S683.588,579.217,684.456,583.789Z" transform="translate(-314.017 -263.101)" opacity="0.1"/>
    <path id="Path_1111" data-name="Path 1111" d="M731.289,588.4,707,585.132l.184-4.161s22.279-3.168,24.158,1.884A10.623,10.623,0,0,1,731.289,588.4Z" transform="translate(-331.663 -264.561)" opacity="0.1"/>
    <path id="Path_1112" data-name="Path 1112" d="M717.888,483.785l-9.707,42.6-28.729-3.864V507.86l-2.485,15.069L642.49,521.24l1.783-32.991a122.367,122.367,0,0,0,3.864-20.11c.672-7.454,4.2-25.84,5.909-34.477.594-2.847.927-4.642.927-4.642s59.051,12.281,62.915,16.739c.66.761,1.094,2.378,1.361,4.524C720.545,460.7,717.888,483.785,717.888,483.785Z" transform="translate(-305.714 -204.643)" fill="#bdd2e8"/>
    <path id="Path_1113" data-name="Path 1113" d="M653.33,519.018s23.242-12.186,28.907-9.612Z" transform="translate(-310.958 -237.236)" opacity="0.1"/>
    <path id="Path_1114" data-name="Path 1114" d="M674.66,458.82s19.319,14.665,19.914,18.624Z" transform="translate(-319.34 -217.756)" opacity="0.1"/>
    <path id="Path_1115" data-name="Path 1115" d="M665.83,543.795s13.969-.594,18.427,2.972Z" transform="translate(-315.977 -250.738)" opacity="0.1"/>
    <path id="Path_1116" data-name="Path 1116" d="M706.741,517.44s6.64,21.732,3.763,27.677-5.843-1.391-5.843-1.391Z" transform="translate(-331.159 -240.027)" opacity="0.1"/>
    <path id="Path_1117" data-name="Path 1117" d="M688.721,708s-6.539.993-5.35,16.84,2.972,18.63,5.35,18.826,13.969,3.073,13.375-2.776-1.189-18.82-.4-20.805,2.158-7.21-.838-8.5l-.648,3.055s-6.343-5.849-10.105-1.587a16.463,16.463,0,0,0-.779-3.049C688.953,709.076,688.133,708.594,688.721,708Z" transform="translate(-322.642 -311.493)" fill="#fff"/>
    <path id="Path_1118" data-name="Path 1118" d="M858.731,363.129s-1.5.838-3.7,1.884c-3.394,1.617-8.453,3.745-12.2,4.06-6.17.523-8.1,1.118-15.158-3.935-5.415-3.876-14.48-9.279-18.427-11.585l-1.718-1.017-.172-.1v-.071l3.275-9,11.591-6.164,2.877,2.467,8.566,7.341s1.338,2.152,3.5,2,13.672.814,13.672.814l2.176.357,4.583.761Z" transform="translate(-369.458 -170.849)" fill="#de91a4"/>
    <path id="Path_1119" data-name="Path 1119" d="M888.291,372s-1.5.838-3.7,1.884c-2.324-1.189-5.213-3.418-4.1-7.086,1-3.3,1.278-5.873,2.1-7.728l4.583.761Z" transform="translate(-398.696 -179.481)" opacity="0.1"/>
    <path id="Path_1120" data-name="Path 1120" d="M887.139,353.556s12.929-3.715,11.966,11.889-10.926,7.062-10.926,7.062-8.471-2.229-6.687-8.1S882.758,354.971,887.139,353.556Z" transform="translate(-398.797 -177.121)" fill="#de91a4"/>
    <path id="Path_1121" data-name="Path 1121" d="M632.356,200.9l-13.47,5.659-.208.089-.149-.071-.838-.422c-3.483-1.736-15.455-7.674-22.987-11.2-8.916-4.161-7.531-8.322-7.531-8.322l-1.284-43.59-2.283-7.829S582,108.685,594.9,102.033s4.559,38.436,4.559,38.436l1,9.368a100.323,100.323,0,0,0,3.537,17.7,27.484,27.484,0,0,1,1.046,5.831c.4,6.337,3.37,5.915,3.37,5.915a41.378,41.378,0,0,1,13.4,4.553,33.51,33.51,0,0,1,4.434,2.806Z" transform="translate(-283.793 -80.754)" fill="#de91a4"/>
    <path id="Path_1122" data-name="Path 1122" d="M738.486,283.27l-11.5-1.189a44.172,44.172,0,0,0,4.88-9.945,16.889,16.889,0,0,0,.505-2.051,6.842,6.842,0,0,0-.63-5.047c-3.364-4.952,20.015-11.889,20.015-11.889a57.106,57.106,0,0,0-.256,8.251,41.757,41.757,0,0,0,.594,5.712c.707,3.846,2.116,7.466,4.8,9.321C764.243,281.487,738.486,283.27,738.486,283.27Z" transform="translate(-339.185 -138.632)" fill="#de91a4"/>
    <path id="Path_1123" data-name="Path 1123" d="M738.486,292.8l-11.5-1.189a44.171,44.171,0,0,0,4.88-9.945c1.326,1.884,1.783,1.843,3.644,2.217,0,0,11.6,1.718,16.6-7.24.707,3.846,2.116,7.466,4.8,9.321C764.243,291.013,738.486,292.8,738.486,292.8Z" transform="translate(-339.185 -147.781)" opacity="0.1"/>
    <path id="Path_1124" data-name="Path 1124" d="M809.294,353.553a6.374,6.374,0,0,0,.048,1.058l-1.783-2.075-.149-.172,3.275-9,11.591-6.164,2.877,2.467C821.034,341.242,809.479,346.241,809.294,353.553Z" transform="translate(-370.418 -171.042)" opacity="0.1"/>
    <path id="Path_1125" data-name="Path 1125" d="M655.517,257.16l-13.47,5.659h-.357l-1.04.071s.077-.172.2-.493c1.123-2.728,6.337-16.05,4.084-22.327a33.513,33.513,0,0,1,4.434,2.806Z" transform="translate(-306.367 -133.673)" opacity="0.1"/>
    <path id="Path_1126" data-name="Path 1126" d="M727.133,450.261c-5.243-.47-57.7-5.32-62.588-13.042a27.131,27.131,0,0,0-2.616-3.567c.594-2.847.927-4.643.927-4.643s59.051,12.281,62.915,16.739C726.432,446.5,726.866,448.109,727.133,450.261Z" transform="translate(-313.433 -206.257)" opacity="0.1"/>
    <path id="Path_1127" data-name="Path 1127" d="M701.313,269.136s11.728,1.736,16.686-7.377c0,0,8.28,6.8,13.232,7.383s27.938,29.52,27.938,29.52-18.427,5.944-17.239,15.455l-8.72-10.105s-4.357-.2-8.12,11.889c0,0-4.559,6.931-3.965,28.925s-1.385,27.148-1.385,27.148-57.862-4.952-63.01-13.077-5.944-4.161-5.944-4.161-.8-15.455,4.553-27.938,4.161-48.345,4.161-48.345.594-17.637-16.84-16.05c0,0,7.329-17.042,3.965-23.581,0,0,10.028,2.722,17.173,2.806a29.377,29.377,0,0,1,12.65,2.972,14.032,14.032,0,0,1,5.249,3.959c3.364,4.755,8.917,2.58,8.917,2.58a90,90,0,0,0,5.171,12.679c.232.434.464.862.7,1.272a19.472,19.472,0,0,0,1.058,1.676C698.971,268.8,699.375,268.75,701.313,269.136Z" transform="translate(-304.71 -132.021)" fill="#f16cdf"/>
    <path id="Path_1128" data-name="Path 1128" d="M754.535,261.371a20.349,20.349,0,0,1-2.1,2.526,20.74,20.74,0,0,1-14.861,6.265,21.342,21.342,0,0,1-2.146-.107,6.842,6.842,0,0,0-.63-5.047c-3.364-4.952,20.015-11.889,20.015-11.889A57.109,57.109,0,0,0,754.535,261.371Z" transform="translate(-342.314 -138.733)" opacity="0.1"/>
    <path id="Path_1129" data-name="Path 1129" d="M746.27,231.625a20.728,20.728,0,1,1-6.071-14.734,20.805,20.805,0,0,1,6.071,14.734Z" transform="translate(-330.368 -122.314)" fill="#de91a4"/>
    <path id="Path_1130" data-name="Path 1130" d="M792,325.8l.428,13.922s6.212-5.005,6.408-9.761S792,325.8,792,325.8Z" transform="translate(-364.767 -166.694)" opacity="0.1"/>
    <path id="Path_1131" data-name="Path 1131" d="M707.66,349.24s16.347,22.44,25.858,24.717S711.227,356.516,707.66,349.24Z" transform="translate(-331.849 -175.568)" opacity="0.1"/>
    <path id="Path_1132" data-name="Path 1132" d="M736.83,353.17s9.113,10.3,15.651,11.58Z" transform="translate(-343.334 -177.255)" opacity="0.1"/>
    <path id="Path_1133" data-name="Path 1133" d="M682.83,396.82s16.644,16.347,26.155,17.34Z" transform="translate(-322.346 -193.954)" opacity="0.1"/>
    <path id="Path_1134" data-name="Path 1134" d="M750.488,231.623a20.727,20.727,0,0,1-5.944,14.54l-2.283-1.421a6.313,6.313,0,0,1-2.223-1.932c-.755-1.26-.535-2.841-.476-4.31.125-3.109-.731-6.473-3.162-8.417-3.941-3.156-10.26-1.409-14.266-4.506a14.068,14.068,0,0,1-2.526-2.812l-3.757-5.035c-.226-.3-.5-.594-.791-.945a20.805,20.805,0,0,1,35.393,14.861Z" transform="translate(-334.506 -122.356)" opacity="0.1"/>
    <path id="Path_1135" data-name="Path 1135" d="M715.74,195.875c1.861-1.421,4.131-2.17,6.224-3.216s3.941-2.378,6.034-3.269a9.5,9.5,0,0,1,6.681-.672c4.654,1.6,6.414,8.1,11.2,9.243.809.19,1.641.208,2.455.333a11.175,11.175,0,0,1,7.52,5.261,17.513,17.513,0,0,1,2.378,9.041,14.485,14.485,0,0,1-.755,5.189c-1.415,3.882-4.964,6.539-7.359,9.9a18.821,18.821,0,0,0-3.442,10.991l-5.8-3.608a6.254,6.254,0,0,1-2.223-1.932c-.755-1.26-.535-2.841-.476-4.31.125-3.109-.731-6.473-3.156-8.417-3.947-3.156-10.266-1.409-14.266-4.506a14.067,14.067,0,0,1-2.526-2.812l-3.757-5.035c-.814-1.094-2.378-2.455-2.734-3.787C710.943,201.4,713.648,197.486,715.74,195.875Z" transform="translate(-332.902 -115.629)" fill="#3f3d56"/>
    <path id="Path_1136" data-name="Path 1136" d="M741.514,239.876a6.252,6.252,0,0,1-2.223-1.932c-.755-1.26-.535-2.841-.476-4.31.125-3.109-.731-6.473-3.162-8.417-3.941-3.156-10.26-1.409-14.266-4.506a14.062,14.062,0,0,1-2.526-2.812l-3.757-5.035c-.82-1.094-2.378-2.455-2.734-3.787-.648-2.295.993-5.285,2.746-7.2-1.968,1.819-4.125,5.273-3.394,7.846.38,1.332,1.92,2.693,2.734,3.787l3.757,5.035a14.063,14.063,0,0,0,2.526,2.812c3.989,3.1,10.307,1.349,14.266,4.506,2.425,1.944,3.281,5.308,3.156,8.417-.059,1.468-.279,3.049.476,4.31a6.255,6.255,0,0,0,2.223,1.932l5.8,3.608a9.858,9.858,0,0,1,.036-1.028Z" transform="translate(-333.176 -118.886)" opacity="0.1"/>
    <path id="Path_1137" data-name="Path 1137" d="M623.821,682.94s-5.79,1.189-4.6,17.066,2.972,18.63,5.35,18.826,13.969,3.073,13.375-2.776-1.189-18.82-.4-20.805,3.929-7.318.933-8.607l-2.419,3.162s-6.343-5.849-10.105-1.587C625.955,688.219,622.436,684.325,623.821,682.94Z" transform="translate(-297.956 -301.33)" fill="#fff"/>
    <path id="Path_1138" data-name="Path 1138" d="M633.23,699.5c1.254.594,2.425,1.32,3.673,1.914a8.245,8.245,0,0,0,3.989.939,2.781,2.781,0,0,0,1.629-.565" transform="translate(-303.618 -308.046)" opacity="0.1"/>
    <path id="Path_1139" data-name="Path 1139" d="M697.33,725.62a20.188,20.188,0,0,0,2.158,2.122,7.531,7.531,0,0,0,4.161.862,1.69,1.69,0,0,0,.713-.089,1.736,1.736,0,0,0,.636-.594l.779-1" transform="translate(-328.298 -318.639)" opacity="0.1"/>
    <path id="Path_1140" data-name="Path 1140" d="M532.789,268.433s-2.675-25.358,7.728-19.117,3.24,17.334,3.24,17.334l-2.443,7.829Z" transform="translate(-264.789 -136.816)" fill="#ffc1c7"/>
    <path id="Path_1141" data-name="Path 1141" d="M561,124.265l5.944-5.837s11.4-32.795,22.689-24.372-14.314,29.722-14.314,29.722l-6.788,7.924Z" transform="translate(-275.463 -77.229)" fill="#ffc1c7"/>
    <path id="Path_1142" data-name="Path 1142" d="M414.457,361.834l-.3,6.735s5.451,9.511,7.728,10.206,2.08-20.116,2.08-20.116Z" transform="translate(-219.322 -179.251)" fill="#f16cdf"/>
    <path id="Path_1144" data-name="Path 1144" d="M334.76,284.87l.4,24.823H362.8l-2.081-14.463Z" transform="translate(-129.984 -109.77)" fill="#ffc1c7"/>
    <path id="Path_1145" data-name="Path 1145" d="M438.737,455.82l1.29,7.924,16.151,35.868s7.329,11.294,1.385,20.805-12.085,24.372-13.078,33.383-8.815,17.833-8.815,17.833l17.042,7.234s1.189-14.165,5.944-20.805S478.665,522.2,478.665,522.2s4.857-4.363,3.769-17.34-.993-22.1-.993-22.1l-1.682-20.7Z" transform="translate(-227.169 -214.036)" fill="#3f3d56"/>
    <path id="Path_1186" data-name="Path 1186" d="M438.737,455.82l1.29,7.924,16.151,35.868s7.329,11.294,1.385,20.805-12.085,24.372-13.078,33.383-8.815,17.833-8.815,17.833l17.042,7.234s1.189-14.165,5.944-20.805S478.665,522.2,478.665,522.2s4.857-4.363,3.769-17.34-.993-22.1-.993-22.1l-1.682-20.7Z" transform="translate(-227.169 -214.036)" opacity="0.1"/>
    <path id="Path_1147" data-name="Path 1147" d="M429.008,648.82s-18.231,5.546-12.186,14.665,25.662,26.452,33.585,25.858,4.755-6.444,4.755-6.444l-6.64-6.539s-1.189-13.868-.69-17.928-5.647-5.944-6.444-3.567S429.008,648.82,429.008,648.82Z" transform="translate(-219.552 -290.108)" fill="#fff"/>
    <path id="Path_1148" data-name="Path 1148" d="M442.756,375.58l-14.451,1.6a5.184,5.184,0,0,0-4.613,5.285c.155,5.778.256,14.968-.553,16.644-1.189,2.479-4.851,20.116,11,32.1l21.5,6.836-34.477,2.479,1.094,19.123,5.35-2.972,65.388,2.972s18.528-1.884,5.944-21.994-39.328-39.827-39.328-39.827l-.3-15.657-1.985-4.553Z" transform="translate(-221.162 -184.649)" fill="#3f3d56"/>
    <path id="Path_1149" data-name="Path 1149" d="M487.66,479.092a18.57,18.57,0,0,1,14.861,0Z" transform="translate(-247.535 -225.271)" opacity="0.1"/>
    <path id="Path_1150" data-name="Path 1150" d="M409.4,483.892s-21.3-3.067-21.4.993,2.972,43.59,13.179,40.915,5.843-15.752,5.843-15.752l7.632-7.329s.791-4.06-4.262-3.668Z" transform="translate(-209.101 -226.445)" fill="#fff"/>
    <path id="Path_1151" data-name="Path 1151" d="M480.491,289.9l8.417,9.612s3.668,4.559,8.025-2.378,12.483-19.319,12.483-19.319,9.018,7.924,11.4,6.343-21.893,33-21.893,33-7.728,11.389-19.224-2.081l-3.364-1.587Z" transform="translate(-242.781 -147.952)" fill="#f16cdf"/>
    <circle id="Ellipse_15" data-name="Ellipse 15" cx="17.536" cy="17.536" r="17.536" transform="translate(192.851 63.454)" fill="#ffc1c7"/>
    <path id="Path_1185" data-name="Path 1185" d="M414.457,361.834l-.3,6.735s5.451,9.511,7.728,10.206,2.08-20.116,2.08-20.116Z" transform="translate(-219.322 -179.251)" opacity="0.1"/>
    <path id="Path_1153" data-name="Path 1153" d="M428.61,187.928s-15.069,7.133-13.286,19.616A276.012,276.012,0,0,1,417.4,235.78s6.842,10.105-2.229,29.424c0,0-5.8,9.808-1.932,16.941,0,0,4.286-11.294,15.366-2.972s28.919,12.186,28.919,12.186-9.214-40.421-3.567-46.069c0,0,9.808-14.564.892-23.777S450.4,203.68,450.4,203.68l28.634-15.354s6.039.1,14.165-12.584a218.368,218.368,0,0,1,17.34-23.183s-6.146-9.214-11.889-9.909c0,0-2.283,2.378-3.864,8.821-.844,3.418-6.58,9.13-11.77,13.737-3.685,3.269-7.24,6.664-10.789,10.105-2.627,2.526-8.477,6.14-21.233,8.185C429.995,186.846,428.61,187.928,428.61,187.928Z" transform="translate(-217.411 -97.498)" opacity="0.1"/>
    <path id="Path_1154" data-name="Path 1154" d="M428.61,185.928s-15.069,7.133-13.286,19.616A276.012,276.012,0,0,1,417.4,233.78s6.842,10.105-2.229,29.424c0,0-5.8,9.808-1.932,16.941,0,0,4.286-11.294,15.366-2.972s28.919,12.186,28.919,12.186-9.214-40.421-3.567-46.068c0,0,9.808-14.564.892-23.777S450.4,201.68,450.4,201.68l28.634-15.354s6.039.1,14.165-12.584a218.368,218.368,0,0,1,17.34-23.183s-6.146-9.214-11.889-9.909c0,0-2.283,2.378-3.864,8.821-.844,3.418-6.58,9.13-11.77,13.737-3.685,3.269-7.24,6.664-10.789,10.105-2.627,2.526-8.477,6.141-21.233,8.185C429.995,184.846,428.61,185.928,428.61,185.928Z" transform="translate(-217.411 -96.687)" fill="#f16cdf"/>
    <path id="Path_1155" data-name="Path 1155" d="M461.83,342.49s11.687,17.239,11.984,20.211C473.82,362.7,472.036,344.172,461.83,342.49Z" transform="translate(-237.637 -173.038)" opacity="0.1"/>
    <path id="Path_1156" data-name="Path 1156" d="M436,244.82s8.15,9.808,19.925,1.587A25.257,25.257,0,0,1,436,244.82Z" transform="translate(-227.614 -135.638)" opacity="0.1"/>
    <path id="Path_1157" data-name="Path 1157" d="M404.286,164.143A5.26,5.26,0,0,0,403,161.765c-2.687-3.37-5.605-6.83-9.606-8.429a13.28,13.28,0,0,0-15.152,4.316c-1.438,1.938-2.294,4.244-3.537,6.319a28.03,28.03,0,0,1-9.66,9.142c-2.3,1.409-4.726,2.627-6.9,4.226-7.888,5.808-11.532,16.543-9.547,26.155.874,4.209,2.722,8.358,2.223,12.632-.386,3.317-2.152,6.289-3.941,9.107s-3.7,5.671-4.411,8.916.036,7.092,2.728,9.059a22.672,22.672,0,0,1,3.037,2.057,9.871,9.871,0,0,1,1.4,2.223,21.857,21.857,0,0,0,13.571,10.7c2.556.672,5.986.428,6.919-2.045a5.346,5.346,0,0,1,.481-1.254c.844-1.189,2.7-.523,4.012.16a24.841,24.841,0,0,0,9.588,2.752,7.994,7.994,0,0,0,3.929-.47,7.259,7.259,0,0,0,2.645-2.289c3.127-4.072,4.024-9.392,4.559-14.5a33.869,33.869,0,0,0-.042-9.986c-1.01-5.267-4.214-10.189-3.739-15.527.505-5.707,5.136-10.373,5.843-16.05a12.24,12.24,0,0,0-2.087-8.435,12.059,12.059,0,0,1-1.587-2.485,2.467,2.467,0,0,1,.476-2.728,4.161,4.161,0,0,1,1.236-.594c3.822-1.468,5.861-5.3,6.135-9.214a20.471,20.471,0,0,1,.41-4.3C402.645,168.982,404.624,166.533,404.286,164.143Z" transform="translate(-191.234 -101.491)" opacity="0.1"/>
    <path id="Path_1158" data-name="Path 1158" d="M402.285,164.143A5.26,5.26,0,0,0,401,161.765c-2.687-3.37-5.605-6.83-9.606-8.429a13.28,13.28,0,0,0-15.152,4.316c-1.439,1.938-2.294,4.244-3.537,6.319a28.029,28.029,0,0,1-9.659,9.142c-2.3,1.409-4.726,2.627-6.9,4.226-7.888,5.808-11.532,16.543-9.547,26.155.874,4.209,2.723,8.358,2.223,12.632-.386,3.317-2.152,6.289-3.941,9.107s-3.7,5.671-4.411,8.916.036,7.092,2.728,9.059a22.676,22.676,0,0,1,3.038,2.057,9.874,9.874,0,0,1,1.4,2.223,21.857,21.857,0,0,0,13.571,10.7c2.556.672,5.986.428,6.919-2.045a5.351,5.351,0,0,1,.481-1.254c.844-1.189,2.7-.523,4.012.161a24.841,24.841,0,0,0,9.588,2.752,8,8,0,0,0,3.929-.47,7.259,7.259,0,0,0,2.645-2.289c3.127-4.072,4.024-9.392,4.559-14.5a33.868,33.868,0,0,0-.042-9.986c-1.011-5.267-4.215-10.189-3.739-15.527.505-5.707,5.136-10.373,5.843-16.05a12.239,12.239,0,0,0-2.086-8.435,12.061,12.061,0,0,1-1.587-2.485,2.467,2.467,0,0,1,.476-2.728,4.161,4.161,0,0,1,1.236-.594c3.822-1.468,5.861-5.3,6.135-9.214a20.469,20.469,0,0,1,.41-4.3C400.645,168.982,402.624,166.533,402.285,164.143Z" transform="translate(-190.469 -101.491)" fill="#3f3d56"/>
    <g id="Group_35" data-name="Group 35" transform="translate(172.926 50.984)" opacity="0.1">
      <path id="Path_1159" data-name="Path 1159" d="M382.206,324.25a5.607,5.607,0,0,0-.487,1.254,3.977,3.977,0,0,1-3.608,2.318c2.241.226,4.637-.315,5.391-2.318a5.606,5.606,0,0,1,.487-1.254,1.486,1.486,0,0,1,.594-.505A2.041,2.041,0,0,0,382.206,324.25Z" transform="translate(-378.11 -221.866)"/>
      <path id="Path_1160" data-name="Path 1160" d="M431.126,164.124a5.13,5.13,0,0,0-1.284-2.378c-2.687-3.37-5.606-6.83-9.606-8.429a12.483,12.483,0,0,0-5.469-.82,12.139,12.139,0,0,1,3.685.82c4,1.6,6.919,5.059,9.606,8.429a5.13,5.13,0,0,1,1.284,2.378c.339,2.378-1.635,4.845-2.289,7.044a18.643,18.643,0,0,0-.41,4.3c-.279,3.911-2.312,7.728-6.141,9.214a4.161,4.161,0,0,0-1.236.594,2.467,2.467,0,0,0-.47,2.734,12.029,12.029,0,0,0,1.581,2.485,12.228,12.228,0,0,1,2.092,8.429c-.713,5.689-5.35,10.349-5.849,16.05-.476,5.35,2.734,10.26,3.739,15.521a34.073,34.073,0,0,1,.042,9.986c-.535,5.106-1.427,10.432-4.559,14.5a7.234,7.234,0,0,1-2.639,2.289,5.908,5.908,0,0,1-1.944.481,7.686,7.686,0,0,0,3.727-.481,7.234,7.234,0,0,0,2.657-2.247c3.133-4.066,4.024-9.392,4.559-14.5a33.87,33.87,0,0,0-.042-9.986c-1-5.261-4.215-10.189-3.739-15.521.511-5.712,5.136-10.373,5.849-16.05a12.227,12.227,0,0,0-2.092-8.429,12.032,12.032,0,0,1-1.581-2.485,2.467,2.467,0,0,1,.47-2.734,4.161,4.161,0,0,1,1.236-.594c3.828-1.474,5.861-5.3,6.14-9.214a20.052,20.052,0,0,1,.41-4.3C429.491,168.968,431.465,166.519,431.126,164.124Z" transform="translate(-391.555 -152.462)"/>
    </g>
    <path id="Path_1161" data-name="Path 1161" d="M406.82,525a8.031,8.031,0,0,0,8.221,2.271" transform="translate(-216.513 -243.524)" opacity="0.1"/>
    <path id="Path_1162" data-name="Path 1162" d="M468.1,696a5.047,5.047,0,0,1-4.1,1.034" transform="translate(-238.565 -306.626)" opacity="0.1"/>
    <ellipse id="Ellipse_16" data-name="Ellipse 16" cx="16.008" cy="2.705" rx="16.008" ry="2.705" transform="translate(46.495 402.415)" fill="#f16cdf" opacity="0.1"/>
    <ellipse id="Ellipse_17" data-name="Ellipse 17" cx="16.008" cy="2.705" rx="16.008" ry="2.705" transform="translate(503.314 456.271)" fill="#f16cdf"/>
    <ellipse id="Ellipse_18" data-name="Ellipse 18" cx="16.008" cy="2.705" rx="16.008" ry="2.705" transform="translate(503.314 404.211)" fill="#f16cdf" opacity="0.1"/>
    <ellipse id="Ellipse_19" data-name="Ellipse 19" cx="16.008" cy="2.705" rx="16.008" ry="2.705" transform="translate(92.374 427.53)" fill="#f16cdf" opacity="0.1"/>
    <ellipse id="Ellipse_20" data-name="Ellipse 20" cx="23.902" cy="4.042" rx="23.902" ry="4.042" transform="translate(546.048 426.193)" fill="#f16cdf"/>
    <ellipse id="Ellipse_21" data-name="Ellipse 21" cx="53.951" cy="9.119" rx="53.951" ry="9.119" transform="translate(158.688 452.758)" fill="#f16cdf" opacity="0.1"/>
    <path id="Path_1163" data-name="Path 1163" d="M1024.369,746.1a6.973,6.973,0,0,0,2.283-3.442,3.063,3.063,0,0,0-1.593-3.5c-1.462-.559-3.026.452-4.208,1.48s-2.544,2.188-4.1,1.974a6.223,6.223,0,0,0,1.926-5.831,2.443,2.443,0,0,0-.535-1.189c-.814-.868-2.283-.493-3.257.19-3.091,2.176-3.953,6.372-3.971,10.153a19.081,19.081,0,0,1-.054-4.161c-.006-1.379-.392-2.972-1.569-3.7a4.8,4.8,0,0,0-2.378-.594c-1.391-.047-2.937.089-3.888,1.106-1.189,1.266-.874,3.382.155,4.755a15.541,15.541,0,0,0,4.018,3.222,8.916,8.916,0,0,1,2.877,2.74,3.009,3.009,0,0,1,.214.487H1019a24.216,24.216,0,0,0,5.368-3.685Z" transform="translate(-444.54 -322.48)" fill="#f16cdf"/>
    <path id="Path_1164" data-name="Path 1164" d="M939.205,794.695a6.961,6.961,0,0,0,2.277-3.442,3.073,3.073,0,0,0-1.593-3.5c-1.462-.559-3.026.452-4.209,1.48s-2.544,2.187-4.1,1.973a6.224,6.224,0,0,0,1.926-5.831,2.379,2.379,0,0,0-.535-1.189c-.808-.868-2.283-.493-3.252.19-3.091,2.176-3.953,6.372-3.971,10.153a18.72,18.72,0,0,1-.059-4.161c-.006-1.379-.392-2.972-1.569-3.7a4.754,4.754,0,0,0-2.378-.565c-1.391-.048-2.936.089-3.888,1.106-1.189,1.266-.874,3.382.155,4.755a15.472,15.472,0,0,0,4.024,3.222,8.917,8.917,0,0,1,2.871,2.74,3.019,3.019,0,0,1,.214.487h8.708A24.378,24.378,0,0,0,939.205,794.695Z" transform="translate(-409.998 -342.187)" fill="#f16cdf"/>
    <path id="Path_1165" data-name="Path 1165" d="M305,650.228s-8.352-28.36,1.569-49.231A44.8,44.8,0,0,0,310.2,572.88a75.227,75.227,0,0,0-3.977-13.19" transform="translate(-178.346 -254.458)" fill="none" stroke="#535461" stroke-miterlimit="10" stroke-width="2"/>
    <path id="Path_1166" data-name="Path 1166" d="M311.072,533.073c0,3.477-6.3,13.553-6.3,13.553s-6.289-10.076-6.289-13.553a6.3,6.3,0,1,1,12.584,0Z" transform="translate(-177.044 -243.762)" fill="#f16cdf"/>
    <path id="Path_1167" data-name="Path 1167" d="M328.53,563.36c-1.89,2.913-12.65,7.954-12.65,7.954s.2-11.889,2.086-14.8a6.3,6.3,0,0,1,10.563,6.842Z" transform="translate(-184.045 -254.272)" fill="#f16cdf"/>
    <path id="Path_1168" data-name="Path 1168" d="M326.208,617.157c-3.1,1.569-14.938.487-14.938.487s6.164-10.159,9.267-11.722a6.3,6.3,0,0,1,5.671,11.235Z" transform="translate(-182.184 -274.201)" fill="#f16cdf"/>
    <path id="Path_1169" data-name="Path 1169" d="M316.4,659.351c-2.794,2.063-14.641,2.972-14.641,2.972s4.363-11.056,7.133-13.125a6.3,6.3,0,0,1,7.484,10.105Z" transform="translate(-178.357 -290.622)" fill="#f16cdf"/>
    <path id="Path_1170" data-name="Path 1170" d="M292.417,577.111c2.5,2.419,14.106,4.928,14.106,4.928s-2.841-11.538-5.35-13.957a6.3,6.3,0,0,0-8.768,9.029Z" transform="translate(-173.87 -259.169)" fill="#f16cdf"/>
    <path id="Path_1171" data-name="Path 1171" d="M280.207,625.25c3.1,1.563,14.932.482,14.932.482s-6.164-10.159-9.267-11.722a6.294,6.294,0,1,0-5.666,11.242Z" transform="translate(-168.287 -277.278)" fill="#f16cdf"/>
    <path id="Path_1172" data-name="Path 1172" d="M276.764,674.8c2.794,2.069,14.641,2.972,14.641,2.972s-4.363-11.056-7.133-13.119a6.3,6.3,0,0,0-7.484,10.105Z" transform="translate(-167.379 -296.566)" fill="#f16cdf"/>
    <path id="Path_1173" data-name="Path 1173" d="M274,702.233s10.171-2.021,12.887-4.714,14.914-7.4,16.27-4.036,18.308,14.807,6.782,16.828-27.124,2.693-30.512,1.349S274,702.233,274,702.233Z" transform="translate(-167.162 -305.132)" fill="#a8a8a8"/>
    <path id="Path_1174" data-name="Path 1174" d="M309.957,715.751c-11.526,2.021-27.124,2.693-30.512,1.343-2.586-1.022-4.381-5.944-5.088-8.245l-.357.089s2.033,8.078,5.427,9.428,18.986.672,30.512-1.349c3.329-.594,4.28-1.95,3.923-3.685C313.6,714.444,312.436,715.318,309.957,715.751Z" transform="translate(-167.162 -311.838)" opacity="0.2"/>
    <path id="Path_1175" data-name="Path 1175" d="M937.036,659.91s3.269,4.274-1.5,10.7-8.708,11.889-7.133,15.913c0,0,7.2-11.978,13.078-12.144S943.474,667.1,937.036,659.91Z" transform="translate(-414.439 -294.787)" fill="#f16cdf"/>
    <path id="Path_1176" data-name="Path 1176" d="M937.168,659.91a5.349,5.349,0,0,1,.672,1.343c5.718,6.717,8.762,12.988,3.263,13.143-5.118.149-11.259,9.3-12.733,11.615a5.5,5.5,0,0,0,.172.529s7.2-11.978,13.078-12.144S943.605,667.1,937.168,659.91Z" transform="translate(-414.57 -294.786)" opacity="0.1"/>
    <path id="Path_1177" data-name="Path 1177" d="M952.875,668.406c0,1.5-.172,2.722-.381,2.722s-.374-1.189-.374-2.722.208-.8.416-.8S952.875,666.9,952.875,668.406Z" transform="translate(-424.202 -298.332)" fill="#ffd037"/>
    <path id="Path_1178" data-name="Path 1178" d="M955.134,671.389c-1.32.719-2.473,1.153-2.568.969s.886-.909,2.205-1.629.8-.2.9,0S956.453,670.67,955.134,671.389Z" transform="translate(-424.381 -299.505)" fill="#ffd037"/>
    <path id="Path_1179" data-name="Path 1179" d="M909.153,659.91s-3.269,4.274,1.5,10.7,8.708,11.889,7.133,15.913c0,0-7.2-11.978-13.077-12.144S902.7,667.1,909.153,659.91Z" transform="translate(-404.34 -294.787)" fill="#f16cdf"/>
    <path id="Path_1180" data-name="Path 1180" d="M909.144,659.91a5.35,5.35,0,0,0-.672,1.343c-5.718,6.717-8.762,12.988-3.263,13.143,5.118.149,11.259,9.3,12.733,11.615a4.238,4.238,0,0,1-.178.529s-7.2-11.978-13.078-12.144S902.695,667.1,909.144,659.91Z" transform="translate(-404.332 -294.786)" opacity="0.1"/>
    <path id="Path_1181" data-name="Path 1181" d="M903.94,668.406c0,1.5.172,2.722.38,2.722s.375-1.189.375-2.722-.208-.8-.416-.8S903.94,666.9,903.94,668.406Z" transform="translate(-406.05 -298.332)" fill="#ffd037"/>
    <path id="Path_1182" data-name="Path 1182" d="M899.891,671.389c1.32.719,2.467,1.153,2.568.969s-.886-.909-2.205-1.629-.8-.2-.9,0S898.572,670.67,899.891,671.389Z" transform="translate(-403.296 -299.505)" fill="#ffd037"/>
    <path id="Path_1183" data-name="Path 1183" d="M905.69,700.4s9.13-.285,11.889-2.241,14.046-4.3,14.73-1.189,13.72,15.628,3.412,15.711-23.95-1.6-26.7-3.275S905.69,700.4,905.69,700.4Z" transform="translate(-405.372 -306.406)" fill="#a8a8a8"/>
    <path id="Path_1184" data-name="Path 1184" d="M935.9,714.979c-10.308.083-23.95-1.6-26.7-3.275-2.093-1.272-2.931-5.843-3.2-7.954h-.309s.594,7.365,3.329,9.035,16.389,3.359,26.7,3.275c2.972,0,4-1.082,3.947-2.645C939.246,714.373,938.11,714.961,935.9,714.979Z" transform="translate(-405.372 -309.77)" opacity="0.2"/>
  </g>
</svg>
