<svg id="banner-01" xmlns="http://www.w3.org/2000/svg" width="426.138" height="457.881" viewBox="0 0 426.138 457.881">
  <rect id="Rectangle_3485" data-name="Rectangle 3485" width="341.167" height="0.641" transform="translate(84.971 457.24)" fill="#3c354c"/>
  <path id="Path_1024" data-name="Path 1024" d="M560.024,411.45c-.077-3.206-.975-5.893-2.264-7.375l-1.02,4.021v-4.829a2.45,2.45,0,0,0-1.494-.353c-2.507.231-4.444,4.444-4.329,9.408s2.245,8.8,4.752,8.574S560.139,416.433,560.024,411.45Z" transform="translate(-369.323 -204.166)" fill="#57b894"/>
  <path id="Path_1025" data-name="Path 1025" d="M559.431,416.617c-1.052.231-2.071.879-3.123,1.007a2.719,2.719,0,0,1-2.867-1.994c-.359-.872-.539-1.975-.84-2.931a5.958,5.958,0,0,0-1.148-2.129,16.585,16.585,0,0,0-.487,4.489c.115,4.964,2.245,8.8,4.752,8.568,2.1-.192,3.8-3.206,4.226-7.093A4.5,4.5,0,0,0,559.431,416.617Z" transform="translate(-369.34 -206.915)" opacity="0.1"/>
  <path id="Path_1026" data-name="Path 1026" d="M884.395,362.424c-2.245-2.251-4.765-3.6-6.721-3.784l2.007,3.591-3.3-3.521a2.481,2.481,0,0,0-1.328.77c-1.661,1.924-.16,6.285,3.348,9.805s7.7,4.835,9.35,2.937S887.883,365.925,884.395,362.424Z" transform="translate(-485.352 -188.288)" fill="#57b894"/>
  <path id="Path_1027" data-name="Path 1027" d="M886.293,367.68c-.6.885-.9,2.059-1.571,2.873a2.732,2.732,0,0,1-3.45.539c-.866-.385-1.757-1.065-2.629-1.546a5.95,5.95,0,0,0-2.3-.763,16.707,16.707,0,0,0,2.745,3.6c3.508,3.521,7.7,4.835,9.35,2.937,1.385-1.59.552-4.932-1.821-8.048A3.353,3.353,0,0,0,886.293,367.68Z" transform="translate(-486.057 -191.383)" opacity="0.1"/>
  <path id="Path_1028" data-name="Path 1028" d="M613.688,368.945l-11.043-6.413s-26.691-3.681-23.01-16.565,22.092,0,22.092,0l11.96,8.228Z" transform="translate(-379.501 -181.688)" fill="#ffc1c7"/>
  <path id="Path_1029" data-name="Path 1029" d="M613.688,368.945l-11.043-6.413s-26.691-3.681-23.01-16.565,22.092,0,22.092,0l11.96,8.228Z" transform="translate(-379.501 -181.688)" opacity="0.1"/>
  <path id="Path_1030" data-name="Path 1030" d="M673.948,266.638s-26.684,19.329-26.684,12.884c0-3.848-4.656-15.731-8.375-24.574-2.463-5.861-4.489-10.4-4.489-10.4l27.575-7.362a32.2,32.2,0,0,0,.308,13.467A25.959,25.959,0,0,0,673.948,266.638Z" transform="translate(-399.271 -144.722)" fill="#ffc1c7"/>
  <path id="Path_1031" data-name="Path 1031" d="M584.552,538.94s-21.163,46.936-13.807,64.418c0,0-23,69.946-30.365,72.7s18.405,7.362,18.405,7.362,30.352-40.491,32.18-72.7,34.982-65.328,34.982-65.328Z" transform="translate(-365.07 -252.963)" fill="#ffc1c7"/>
  <path id="Path_1032" data-name="Path 1032" d="M686,561.979s11.96,38.657,27.608,49.7c0,0,32.212,53.375,27.576,69.939,0,0,18.405,2.764,19.328,0,0,0-8.285-57.979-28.531-80.982S720.989,550,720.989,550Z" transform="translate(-417.78 -256.93)" fill="#ffc1c7"/>
  <path id="Path_1033" data-name="Path 1033" d="M526.138,751.574s-11.043-9.2-19.322-1.841-23.01,5.522-34.053,1.841-10.12,5.521,15.647,17.482S528.9,783.8,528.9,783.8s3.681-14.75,3.681-18.405,2.289-10.562,2.289-10.562Z" transform="translate(-338.887 -327.552)" fill="#f2f2f2"/>
  <path id="Path_1034" data-name="Path 1034" d="M762.194,751.391s-11.043-6.413-12.884,5.521-28.531,19.328-28.531,19.328S707.9,788.2,747.47,784.5s36.81-11.043,36.81-11.043L771.749,749.64Z" transform="translate(-429.537 -328.543)" fill="#f2f2f2"/>
  <path id="Path_1035" data-name="Path 1035" d="M621.727,468.935s-28.531,40.491-17.488,45.089,10.126-7.362,21.163,5.522,39.574,6.413,43.255,3.681,12.884-14.75,20.246-13.8-11.979-46.936-11.979-46.936Z" transform="translate(-387.54 -225.54)" fill="#3f3d56"/>
  <path id="Path_1036" data-name="Path 1036" d="M659.8,246.688c-3.938,3.675-6.721,9.908-12.531,9.908a21.938,21.938,0,0,1-8.375-1.648c-2.463-5.861-4.489-10.4-4.489-10.4l27.575-7.362C661.078,242.461,658.852,242.942,659.8,246.688Z" transform="translate(-399.271 -144.722)" opacity="0.1"/>
  <circle id="Ellipse_7" data-name="Ellipse 7" cx="22.086" cy="22.086" r="22.086" transform="translate(225.907 65.777)" fill="#ffc1c7"/>
  <path id="Path_1037" data-name="Path 1037" d="M656.36,278.81s-9.542,9.683-13.974,10.363-21.009,29.2-16.4,52.214-5.522,70.863-.917,73.62,78.237-10.12,78.237-10.12Z" transform="translate(-395.483 -159.652)" fill="#f2f2f2"/>
  <path id="Path_1038" data-name="Path 1038" d="M668.879,271.4s-16.565-5.521-22.086,23.927-12.884,4.6-12.884,42.325-2.764,51.54,1.841,83.746,8.279,32.212,2.758,43.255,58.9,8.285,74.544-12.884-4.6-100.311-12.884-112.277-8.285-48.77-14.75-57.973a24.7,24.7,0,0,0-16.539-10.12Z" transform="translate(-398.8 -156.847)" fill="#f16cdf"/>
  <path id="Path_1039" data-name="Path 1039" d="M669.018,453.376l-8.151-10.2L634.85,319.012l17.488-32.642a19.367,19.367,0,0,1,14.865-10.1,19,19,0,0,1,16.674,6.413c25.312,28.82,38.016,118.183,38.542,121.973l.051.359-2.565,6.676-13.467,30.186Zm-5.586-11.4L670,450.182l34.4-10.607L717.326,410.6l2.3-5.945c-.911-6.272-13.846-92.878-37.836-120.184a16.571,16.571,0,0,0-27.03,3.168L637.755,319.4Z" transform="translate(-399.432 -158.69)" fill="#2f2e41"/>
  <path id="Path_1040" data-name="Path 1040" d="M587.716,345.643h0L563.8,324.372a1.443,1.443,0,0,1-.237-1.873l.295-.449h0a1.283,1.283,0,0,1,1.969-.231l21.8,20.2a2.5,2.5,0,0,1,.083,3.623Z" transform="translate(-373.775 -174.951)" fill="#f16cdf"/>
  <path id="Path_1041" data-name="Path 1041" d="M587.716,345.973h0L563.8,324.7a1.443,1.443,0,0,1-.237-1.873l.295-.449,23.8,21.342a1.546,1.546,0,0,1,.058,2.251Z" transform="translate(-373.775 -175.281)" fill="#192534"/>
  <path id="Path_1042" data-name="Path 1042" d="M678.47,354.3s-34.052-2.758-40.491-14.75-23.009-5.522-18.405,0,3.681,18.405,16.565,19.328,45.089,7.388,45.089,7.388Z" transform="translate(-393.667 -179.008)" fill="#ffc1c7"/>
  <path id="Path_1043" data-name="Path 1043" d="M736.294,476.84s-23.01,1.841-28.531,25.767S677.4,514.573,677.4,514.573s-2.764,62.577,37.727,46.936,49.7-45.1,49.7-48.777S737.217,486.966,736.294,476.84Z" transform="translate(-414.68 -230.687)" fill="#2f2e41"/>
  <path id="Path_1044" data-name="Path 1044" d="M679.238,519.172s24.824,11.967,30.365-11.96c5.259-22.791,26.363-25.543,28.364-25.754a12.319,12.319,0,0,1-1.674-4.617s-23.009,1.841-28.531,25.767S677.4,514.573,677.4,514.573s-.9,20.425,5.881,35.021C678.514,535.659,679.238,519.172,679.238,519.172Z" transform="translate(-414.68 -230.687)" opacity="0.1"/>
  <path id="Path_1045" data-name="Path 1045" d="M798.661,516.968a7.687,7.687,0,0,0,.2-1.385c0-3.149-20.207-19.777-26.62-30.853C773.6,493.285,792.377,509.606,798.661,516.968Z" transform="translate(-448.715 -233.517)" opacity="0.1"/>
  <path id="Path_1046" data-name="Path 1046" d="M608.961,183.32c-1.283,4.027,2.867,8.1,7.054,8.523s8.247-1.584,12.082-3.38,8.119-3.476,12.217-2.386c4.489,1.186,7.477,5.361,9.472,9.53a47.533,47.533,0,0,1,3.777,11.466c.821,4.245,1.2,8.914,4.117,12.12s7.76,4.072,12.185,4.053,8.9-.641,13.166.449c8.465,2.206,13.7,10.639,16.725,18.828s4.835,17.11,10.306,23.927c4.56,5.695,11.21,9.305,17.873,12.3a33.864,33.864,0,0,0,10.511,3.258c3.668.346,7.606-.507,10.261-3.02,2.995-2.809,3.957-7.093,4.771-11.107,1.186-5.823,2.373-11.806,1.391-17.674-1.282-7.7-6.227-14.461-7.362-22.189-1.1-7.516,1.494-15.1,1.231-22.7-.442-12.71-9.8-24.626-22.067-28.108-4.489-1.283-9.2-1.513-13.512-3.206-5.618-2.238-9.946-6.74-14.538-10.671a88.427,88.427,0,0,0-38.163-19.066c-9.453-2.1-20.637-2.129-27.319,4.855-2.713,2.841-4.489,6.682-7.952,8.58a35.382,35.382,0,0,1-5.727,1.994c-9.44,3.245-14.865,15.006-11.2,24.266" transform="translate(-389.479 -110.95)" fill="#2f2e41"/>
  <path id="Path_1047" data-name="Path 1047" d="M744.048,284.209a33.866,33.866,0,0,1-10.511-3.258c-6.663-2.995-13.307-6.605-17.873-12.3-5.47-6.817-7.291-15.731-10.306-23.927S697.1,228.1,688.634,225.9c-4.265-1.116-8.76-.468-13.166-.449s-9.2-.8-12.185-4.053-3.3-7.875-4.117-12.12a47.454,47.454,0,0,0-3.777-11.466c-1.994-4.168-5-8.337-9.472-9.53-4.1-1.09-8.382.59-12.217,2.386s-7.862,3.8-12.082,3.38-8.337-4.489-7.054-8.523l-.641.641a17.764,17.764,0,0,1-.436-11.332c-5.432,5.1-7.862,13.531-5.092,20.521l.641-.641c-1.283,4.027,2.867,8.1,7.054,8.523s8.247-1.584,12.082-3.38,8.119-3.476,12.217-2.386c4.489,1.186,7.477,5.361,9.472,9.53a47.531,47.531,0,0,1,3.777,11.466c.821,4.245,1.2,8.914,4.117,12.12s7.76,4.072,12.185,4.053,8.9-.641,13.166.449c8.465,2.206,13.7,10.639,16.725,18.828s4.835,17.11,10.306,23.927c4.56,5.695,11.21,9.305,17.873,12.3A33.865,33.865,0,0,0,738.52,293.4c3.668.346,7.606-.507,10.261-3.02,2.257-2.116,3.36-5.079,4.117-8.132A14.031,14.031,0,0,1,744.048,284.209Z" transform="translate(-389.529 -122.353)" opacity="0.1"/>
  <path id="Path_1048" data-name="Path 1048" d="M674.357,287.612s-2.764,20.246,7.362,24.85,17.482,20.22,17.482,20.22l-8.279,1.841s-2.764,12.884,4.6,16.565,27.608,0,27.608,0,9.209-4.6,1.841-19.328-28.518-46.9-28.518-46.9S685.4,272.888,674.357,287.612Z" transform="translate(-413.48 -160.175)" fill="#f16cdf"/>
  <ellipse id="Ellipse_8" data-name="Ellipse 8" cx="4.431" cy="6.644" rx="4.431" ry="6.644" transform="translate(259.139 81.534)" fill="#ffc1c7"/>
  <circle id="Ellipse_9" data-name="Ellipse 9" cx="2.212" cy="2.212" r="2.212" transform="translate(261.358 86.702)" fill="#f2f2f2"/>
  <ellipse id="Ellipse_10" data-name="Ellipse 10" cx="2.584" cy="1.109" rx="2.584" ry="1.109" transform="translate(259.57 94.047) rotate(-63.3)" fill="#f2f2f2"/>
  <path id="Path_1049" data-name="Path 1049" d="M816.024,124.45c-.077-3.174-.975-5.893-2.264-7.375l-1.02,4.021v-4.829a2.45,2.45,0,0,0-1.494-.353c-2.507.231-4.444,4.444-4.329,9.408s2.245,8.8,4.752,8.574S816.139,129.433,816.024,124.45Z" transform="translate(-461.153 -101.216)" fill="#57b894"/>
  <path id="Path_1050" data-name="Path 1050" d="M815.431,129.617c-1.052.231-2.071.879-3.123,1.007a2.719,2.719,0,0,1-2.867-1.994c-.359-.872-.539-1.975-.84-2.931a5.958,5.958,0,0,0-1.148-2.129,16.58,16.58,0,0,0-.487,4.489c.115,4.964,2.245,8.8,4.752,8.568,2.1-.192,3.8-3.206,4.226-7.093A4.49,4.49,0,0,0,815.431,129.617Z" transform="translate(-461.17 -103.966)" opacity="0.1"/>
  <path id="Path_1051" data-name="Path 1051" d="M887.685,531.879c2.905-1.283,5.066-3.162,5.938-4.925l-4.072.59,4.489-1.821a2.482,2.482,0,0,0-.244-1.513c-1.174-2.225-5.81-2.4-10.35-.385s-7.272,5.445-6.1,7.7S883.139,533.893,887.685,531.879Z" transform="translate(-486.321 -247.037)" fill="#57b894"/>
  <path id="Path_1052" data-name="Path 1052" d="M885.225,532.293A29.382,29.382,0,0,1,883.1,529.8a2.72,2.72,0,0,1,.738-3.412c.641-.641,1.616-1.283,2.379-1.924a5.861,5.861,0,0,0,1.533-1.873,16.746,16.746,0,0,0-4.335,1.283c-4.54,2.014-7.272,5.445-6.1,7.7.988,1.866,4.412,2.289,8.17,1.186A4.542,4.542,0,0,0,885.225,532.293Z" transform="translate(-486.31 -247.098)" opacity="0.1"/>
  <path id="Path_1053" data-name="Path 1053" d="M502.685,577.879c2.905-1.283,5.066-3.162,5.938-4.925l-4.072.59,4.489-1.821a2.482,2.482,0,0,0-.244-1.513c-1.174-2.225-5.81-2.4-10.35-.385s-7.272,5.445-6.1,7.7S498.139,579.893,502.685,577.879Z" transform="translate(-348.218 -263.538)" fill="#57b894"/>
  <path id="Path_1054" data-name="Path 1054" d="M500.225,578.293A29.368,29.368,0,0,1,498.1,575.8a2.72,2.72,0,0,1,.737-3.412c.641-.641,1.616-1.283,2.379-1.924a5.861,5.861,0,0,0,1.533-1.872,16.743,16.743,0,0,0-4.335,1.283c-4.54,2.014-7.272,5.445-6.1,7.7.988,1.866,4.412,2.289,8.17,1.186a4.55,4.55,0,0,0-.263-.462Z" transform="translate(-348.207 -263.599)" opacity="0.1"/>
  <rect id="Rectangle_3486" data-name="Rectangle 3486" width="82" height="8" transform="translate(40 23.881)" fill="#fff" opacity="0.3"/>
  <path id="Path_1055" data-name="Path 1055" d="M426.469,217.044,409.937,188.27H267.75V94H455.007v94.27H426.469ZM268.391,187.628H410.309l15.519,27.018V187.628h28.537V94.641H268.391Z" transform="translate(-267.75 -93.359)" opacity="0.1"/>
  <path id="Path_1056" data-name="Path 1056" d="M426.469,216.044,409.937,187.27H267.75V93H455.007v94.27H426.469ZM268.391,186.628H410.309l15.519,27.018V186.628h28.537V93.641H268.391Z" transform="translate(-267.75 -93)" fill="#f2f2f2"/>
  <circle id="Ellipse_11" data-name="Ellipse 11" cx="10.581" cy="10.581" r="10.581" transform="translate(10.581 17.635)" fill="#fff" opacity="0.3"/>
  <circle id="Ellipse_12" data-name="Ellipse 12" cx="3.848" cy="3.848" r="3.848" transform="translate(149.741 68.297)" fill="#fff" opacity="0.3"/>
  <circle id="Ellipse_13" data-name="Ellipse 13" cx="3.848" cy="3.848" r="3.848" transform="translate(159.361 68.297)" fill="#fff" opacity="0.3"/>
  <circle id="Ellipse_14" data-name="Ellipse 14" cx="3.848" cy="3.848" r="3.848" transform="translate(168.98 68.297)" fill="#fff" opacity="0.3"/>
</svg>
