<svg xmlns="http://www.w3.org/2000/svg" width="547" height="471.217" viewBox="0 0 547 471.217">
  <g id="exp" transform="translate(0)">
    <path id="Path_1058" data-name="Path 1058" d="M333.13,313.578s-58.5,20.15-69.723,38.75S333.13,313.578,333.13,313.578Z" transform="translate(-197.402 -162.233)" fill="#f16cdf"/>
    <path id="Path_1059" data-name="Path 1059" d="M211.4,373.362a2.851,2.851,0,0,1-2.219-.819c-1.82-1.639-.333-4.739.944-6.929,17.116-29.34,103.176-60.259,106.83-61.561l7.87-2.8-6.739,4.937c-.249.183-25.285,18.509-50.915,35.773C227.323,368.8,215.494,373.362,211.4,373.362ZM309.3,309.538c-22.6,8.747-83.5,34.032-97.072,57.307-1.808,3.1-1.426,3.877-1.421,3.884.366.395,4.991,2.871,54.7-30.591C282.835,328.473,299.929,316.292,309.3,309.538Z" transform="translate(-176.753 -157.521)" fill="#3f3d56"/>
    <path id="Path_1060" data-name="Path 1060" d="M330.128,280s-53.913-5.542-70.268,3.929S330.128,280,330.128,280Z" transform="translate(-195.668 -148.778)" fill="#f16cdf"/>
    <path id="Path_1061" data-name="Path 1061" d="M242.948,284.04c-18.872,0-20.167-3.025-20.761-4.408-1.186-2.768,2.114-5.374,3.2-6.23,23.4-18.476,94.478.2,97.493,1l5.781,1.542-5.923.846c-.238.034-24.053,3.421-48.085,5.542C260.635,283.566,250.415,284.04,242.948,284.04Zm16.538-16.281c-13.292,0-25.452,1.926-32.586,7.558-2.153,1.7-2.687,2.846-2.468,3.352.547,1.275,5.769,5.132,50.006,1.229,16.484-1.455,32.865-3.507,41.564-4.657C304.854,272.675,280.724,267.759,259.485,267.759Z" transform="translate(-181.953 -143.764)" fill="#3f3d56"/>
    <path id="Path_1062" data-name="Path 1062" d="M386.52,221.093s-27.118-65.114-20.548-71.559S386.52,221.093,386.52,221.093Z" transform="translate(-236.631 -99.37)" fill="#f16cdf"/>
    <path id="Path_1063" data-name="Path 1063" d="M385.185,211.628l-3.372-8.616c-.082-.211-8.333-21.345-15.131-43.1-14-44.811-8.264-48.638-6.378-49.9a3.175,3.175,0,0,1,3.241-.274c10.577,4.929,19.623,83.725,20.619,92.693Zm-23.024-99.767a.906.906,0,0,0-.5.183c-6.739,4.493,6.923,48.727,18.932,80.922-4.119-33.2-11.7-78.045-18.077-81.014a.829.829,0,0,0-.353-.09Z" transform="translate(-233.796 -84.178)" fill="#3f3d56"/>
    <path id="Path_1064" data-name="Path 1064" d="M416.468,248.064s14.555-65.815,29.8-65.815S416.468,248.064,416.468,248.064Z" transform="translate(-256.329 -112.023)" fill="#f16cdf"/>
    <path id="Path_1065" data-name="Path 1065" d="M410.251,232.557l1.44-5.419c1.057-3.974,26.189-97.328,53.662-97.328,3.766,0,5.391,1.767,6.092,3.249,7.325,15.515-50.962,87.061-57.631,95.168Zm55.1-100.306c-21.929,0-43.727,69.308-49.7,89.85,19.668-24.436,58.87-76.814,53.589-88C469.021,133.644,468.363,132.251,465.353,132.251Z" transform="translate(-253.952 -91.974)" fill="#3f3d56"/>
    <path id="Path_1066" data-name="Path 1066" d="M430.3,275.133s50.041-31.622,152.565-21.969S430.3,275.133,430.3,275.133Z" transform="translate(-261.618 -138.435)" fill="#f16cdf"/>
    <path id="Path_1067" data-name="Path 1067" d="M424.773,271.826l2.62-2.246c.53-.455,13.288-11.238,38.848-19.91,23.521-7.982,62.731-15.5,115.946-6,22.483,4.015,25.4,7.007,25.207,9.641-.193,2.6-.646,8.7-90.476,14.352-43.9,2.762-88.253,4.047-88.7,4.059ZM533.89,241.676c-57.8,0-91.976,20.538-101.885,27.491,11.73-.375,48.406-1.649,84.764-3.937,83.472-5.252,88.107-11,88.189-12.1.009-.117-.052-2.924-23.2-7.058a272.079,272.079,0,0,0-47.867-4.4Z" transform="translate(-259.505 -133.809)" fill="#3f3d56"/>
    <path id="Path_1068" data-name="Path 1068" d="M481.676,295.841s87.654-1.17,92.579,8.19S481.676,295.841,481.676,295.841Z" transform="translate(-281.26 -155.434)" fill="#f16cdf"/>
    <path id="Path_1069" data-name="Path 1069" d="M580.733,318.917c-27.979,0-95.231-20.09-104.158-22.8l-7.315-2.216,7.641-.172c11.212-.251,109.724-1.89,115.921,17.943a4.4,4.4,0,0,1-.961,4.707C590.1,318.163,586.151,318.917,580.733,318.917Zm-95.809-22.854c41.115,12.05,98.205,25.666,105.2,18.6a1.994,1.994,0,0,0,.365-2.26C586.091,298.315,518.9,295.832,484.924,296.063Z" transform="translate(-276.513 -154.594)" fill="#3f3d56"/>
    <path id="Path_1070" data-name="Path 1070" d="M454.012,311.6s52.944,24.471,42.6,32S454.012,311.6,454.012,311.6Z" transform="translate(-270.683 -161.478)" fill="#f16cdf"/>
    <path id="Path_1071" data-name="Path 1071" d="M524.629,368.9c-25.611,0-77.757-61.6-80.183-64.483l-3.433-4.081,4.867,2.181c3.551,1.592,86.986,39.2,88.812,58.039a6.725,6.725,0,0,1-3.17,6.318,11.663,11.663,0,0,1-6.893,2.025Zm-74.72-61.862c20.136,23.1,64.938,68.623,80.2,57.843a4.257,4.257,0,0,0,2.15-4.089C530.949,347.251,476.427,319.322,449.909,307.041Z" transform="translate(-265.714 -157.172)" fill="#3f3d56"/>
    <path id="Path_1072" data-name="Path 1072" d="M596.284,359.026s43.939,18.308,34.175,30.513S596.284,359.026,596.284,359.026Z" transform="translate(-325.078 -179.61)" fill="#f16cdf"/>
    <path id="Path_1073" data-name="Path 1073" d="M463.892,335.314s91.539,100.083,83,106.185S463.892,335.314,463.892,335.314Z" transform="translate(-274.461 -170.544)" fill="#f16cdf"/>
    <path id="Path_1074" data-name="Path 1074" d="M436.228,323.458s38.54,64.188,30.675,70.429S436.228,323.458,436.228,323.458Z" transform="translate(-263.884 -166.011)" fill="#f16cdf"/>
    <path id="Path_1075" data-name="Path 1075" d="M475.863,410.681a4.512,4.512,0,0,1-1.414-.237c-14.129-4.641-42.606-88.016-45.806-97.508l-2.846-8.441,5.012,7.365c.149.22,15.129,22.269,28.422,45.079,24.575,42.168,22.538,50.46,18.868,53.029A3.843,3.843,0,0,1,475.863,410.681Zm-41.8-89.534c10.388,29.487,31.3,83.742,41.151,86.979a1.547,1.547,0,0,0,1.489-.158c2.017-1.411,4.147-9.089-19.572-49.79-8.415-14.44-17.512-28.579-23.067-37.03Z" transform="translate(-259.896 -158.761)" fill="#3f3d56"/>
    <path id="Path_1076" data-name="Path 1076" d="M397.259,319.506s-34.687,102.35-13.4,101.3S397.259,319.506,397.259,319.506Z" transform="translate(-241.22 -164.5)" fill="#f16cdf"/>
    <path id="Path_1077" data-name="Path 1077" d="M367.118,435.062a9.672,9.672,0,0,1-8.544-4.345c-13.732-20.466,26.947-110.727,28.685-114.56l1.856-4.09.47,4.467c.385,3.655,9.194,89.789-10.762,112.8a15.228,15.228,0,0,1-11.155,5.718C367.483,435.059,367.3,435.062,367.118,435.062Zm20.467-113.595c-8.042,18.491-38.34,90.965-26.984,107.89,1.547,2.307,3.828,3.377,6.975,3.255,3.595-.134,6.67-1.729,9.4-4.879,16.682-19.235,12.175-87.681,10.606-106.267Z" transform="translate(-233.115 -161.656)" fill="#3f3d56"/>
    <path id="Path_1078" data-name="Path 1078" d="M357.48,327.743s-58.225,66.594-52.9,73.608S357.48,327.743,357.48,327.743Z" transform="translate(-213.421 -167.649)" fill="#f16cdf"/>
    <path id="Path_1079" data-name="Path 1079" d="M274.247,412.837a3.41,3.41,0,0,1-2.135-.707,3.759,3.759,0,0,1-1.385-2.775c-1.462-16.544,76.042-102.75,79.341-106.411l7.8-8.657-5.839,10.086c-2.489,4.3-61.124,105.3-76.913,108.376A4.562,4.562,0,0,1,274.247,412.837Zm69.4-99.007c-25.678,29.165-71.505,83.826-70.49,95.311a1.336,1.336,0,0,0,.453,1.063,1.188,1.188,0,0,0,1.039.149c10.912-2.126,49.031-62.919,69-96.523Z" transform="translate(-200.601 -154.858)" fill="#3f3d56"/>
    <path id="Path_1080" data-name="Path 1080" d="M295.864,221.379s-50.762-59.961-97.7-54.15S295.864,221.379,295.864,221.379Z" transform="translate(-169.281 -106.129)" fill="#f16cdf"/>
    <path id="Path_1081" data-name="Path 1081" d="M290.555,223.124l-4-.913c-.321-.073-32.4-7.432-64.122-16.819-64.952-19.221-65.162-28.06-65.23-30.964-.083-3.5,3.484-6.215,10.906-8.286,27.544-7.688,58.645,7.456,79.877,21.518a265.6,265.6,0,0,1,39.719,32.514ZM183.877,166.5a56,56,0,0,0-15.107,2c-5.933,1.656-9.172,3.743-9.122,5.877.278,11.718,72.31,32.614,123.25,44.489-12.042-11.551-57.536-52.363-99.02-52.363Z" transform="translate(-157.206 -105.072)" fill="#3f3d56"/>
    <path id="Path_1082" data-name="Path 1082" d="M259.221,247.773s-67.129-4.882-62.246,7.323S259.221,247.773,259.221,247.773Z" transform="translate(-172.314 -136.706)" fill="#f16cdf"/>
    <path id="Path_1083" data-name="Path 1083" d="M318.663,166.629S315,149.542,308.9,153.2,318.663,166.629,318.663,166.629Z" transform="translate(-214.669 -100.721)" fill="#f16cdf"/>
    <path id="Path_1084" data-name="Path 1084" d="M425.688,151.11s16.748-70.377,9.158-70.635S425.688,151.11,425.688,151.11Z" transform="translate(-259.854 -73.111)" fill="#f16cdf"/>
    <path id="Path_1085" data-name="Path 1085" d="M420.529,162.134l-.137-9.346c-.044-3-.975-73.631,8.207-82.951a3.854,3.854,0,0,1,2.777-1.283,3.249,3.249,0,0,1,2.615,1.339c7.066,9.05-9.305,75.613-11.2,83.173Zm10.848-91.139c-.122,0-.491,0-1.038.555-6.064,6.155-7.472,47.1-7.554,71.182,6.722-28.694,13.573-65.844,9.284-71.337A.823.823,0,0,0,431.376,70.995Z" transform="translate(-257.812 -68.554)" fill="#3f3d56"/>
    <path id="Path_1086" data-name="Path 1086" d="M550.836,202s7.323-18.308,14.646-13.426S550.836,202,550.836,202Z" transform="translate(-307.702 -114.126)" fill="#f16cdf"/>
    <path id="Path_1087" data-name="Path 1087" d="M436.594,473.634s-9.764,72.011,8.544,70.79S436.594,473.634,436.594,473.634Z" transform="translate(-263.03 -223.427)" fill="#f16cdf"/>
    <path id="Path_1088" data-name="Path 1088" d="M507.345,400.311s-9.355-15.592-9.355-26.506c0,0-16.372-17.151-11.694-21.829s14.812,13.253,14.812,13.253-18.71-21.049-13.253-24.168,23.388,20.269,23.388,20.269l6.237-3.118s-13.247-32.673-3.9-33.523c4.288-.39,14.033,31.184,14.033,31.184L537.749,381.6s3.9,9.355,2.339,14.812a102.85,102.85,0,0,0-2.339,10.135Z" transform="translate(-282.705 -166.48)" fill="#ffb9b9"/>
    <path id="Path_1089" data-name="Path 1089" d="M551.557,427.374s5.457-8.576,3.482-21.67S542.2,385.276,542.2,385.276s-7.016,5.457,0,19.49c0,0-8.576,7.8-1.559,20.269" transform="translate(-302.75 -189.646)" opacity="0.1"/>
    <path id="Path_1090" data-name="Path 1090" d="M556.6,427.374s5.457-8.576,3.482-21.67-12.837-20.428-12.837-20.428-7.016,5.457,0,19.49c0,0-8.576,7.8-1.559,20.269" transform="translate(-304.68 -189.646)" fill="#ffb9b9"/>
    <path id="Path_1091" data-name="Path 1091" d="M516.491,378.853l-4.288-6.626s-20.27-3.118-17.931,3.9,11.694,3.9,11.694,3.9l5.457,5.457Z" transform="translate(-286.004 -184.392)" opacity="0.1"/>
    <path id="Path_1092" data-name="Path 1092" d="M520.964,377.015l-6.237-8.576s-20.269-3.118-17.931,3.9,11.694,3.9,11.694,3.9l5.457,5.457Z" transform="translate(-286.97 -182.945)" fill="#ffb9b9"/>
    <path id="Path_1093" data-name="Path 1093" d="M610.55,478.723l-3.9,31.184,60.809,3.9v-37.42Z" transform="translate(-231.94 -182.135)" fill="#ffb9b9"/>
    <path id="Path_1094" data-name="Path 1094" d="M833.961,683.542l-49.312-98.627c-2.946-9.756-12.146-25.644-40.729-35.853l-21.439-18.136-15.982-.574L642.572,521s-49.115-3.118-81.078,16.371l-8.575-3.9s-14.033-49.894-7.8-85.756L509.262,444.6s-19.49,84.976-10.135,110.7,43.657,44.437,43.657,44.437l30.4,30.4,11.694,53.013H767.308l2.9-13.909,14.248,13.909Z" transform="translate(-286.961 -212.325)" fill="#cfcce0"/>
    <path id="Path_1095" data-name="Path 1095" d="M819.7,423.809c-57.436,15.509-113.887,16.606-169.146.239a14.883,14.883,0,0,1-10.936-14.1V248.528A14.993,14.993,0,0,1,652.6,233.969c52.127-8.175,107.349-7.542,165.107.305a15.006,15.006,0,0,1,13.3,14.6V409.606A14.9,14.9,0,0,1,819.7,423.809Z" transform="translate(-341.645 -129.556)" fill="#cfcce0"/>
    <path id="Path_1096" data-name="Path 1096" d="M728.51,350.337s-13.211-19.308-5.081-24.389,20.324,9.146,20.324,9.146,15.243-13.211,23.373-8.13S759,350.337,759,350.337s12.194,3.049,13.21,11.178,5.081,29.47-12.194,30.486c-9.255.544-14.426-2.119-17.234-4.71a5.664,5.664,0,0,0-7.46-.088c-5.858,4.935-16.409,10.624-24.084-3.331C708.186,362.532,728.51,350.337,728.51,350.337Z" transform="translate(-368.908 -166.544)" fill="#3f3d56"/>
    <path id="Path_1097" data-name="Path 1097" d="M869.58,353.628s13.211-19.308,5.081-24.389-20.324,9.146-20.324,9.146-15.243-13.211-23.373-8.13,8.13,23.372,8.13,23.372-12.194,3.049-13.211,11.178-5.081,29.47,12.194,30.486c9.255.544,14.426-2.119,17.234-4.71a5.664,5.664,0,0,1,7.46-.088c5.858,4.935,16.409,10.624,24.084-3.331C889.9,365.822,869.58,353.628,869.58,353.628Z" transform="translate(-412.423 -167.802)" fill="#3f3d56"/>
    <path id="Path_1098" data-name="Path 1098" d="M707.221,453.609s19.063,15.348,59.712,14.38,53.794-2.627,62.483-12.208,11.264,1.485,8.566,8.738-6.163,19.632-26.413,21.638c-13.331,1.321-42.145,1.634-60.279,1.694a92.672,92.672,0,0,1-40.746-9.064l-.5-.246a23.069,23.069,0,0,1-12.853-20.676c0-3.418.6-5.265,2.828-5.939C704.027,450.713,707.221,453.609,707.221,453.609Z" transform="translate(-363.657 -215.014)" fill="#3f3d56"/>
  </g>
</svg>
