<svg xmlns="http://www.w3.org/2000/svg" width="40" height="40" viewBox="0 0 40 40">
  <g id="like" transform="translate(-373 -579)">
    <g id="heart" transform="translate(381.449 589.1)" fill="none">
      <path d="M2.438,2.377a6.382,6.382,0,0,0,0,9.062L11.55,20.5l9.113-9.062a6.382,6.382,0,0,0,0-9.062,6.469,6.469,0,0,0-9.113,0A6.469,6.469,0,0,0,2.438,2.377Z" stroke="none"/>
      <path d="M 6.993886947631836 1.999994277954102 C 5.671817779541016 1.999994277954102 4.429317474365234 2.511543273925781 3.495246887207031 3.440412521362305 C 2.563447952270508 4.367002487182617 2.050287246704102 5.598323822021484 2.050287246704102 6.907573699951172 C 2.050298690795898 8.216803550720215 2.563457489013672 9.448102951049805 3.495258331298828 10.37466335296631 L 11.55018901824951 18.38461112976074 L 19.60537719726563 10.37465381622314 C 20.53716850280762 9.448093414306641 21.05030822753906 8.216793060302734 21.0502872467041 6.907573699951172 C 21.05026817321777 5.598333358764648 20.53707695007324 4.367013931274414 19.60519790649414 3.440412521362305 C 18.67110824584961 2.511543273925781 17.4285888671875 1.999994277954102 16.10651779174805 1.999994277954102 C 14.78444766998291 1.999994277954102 13.54192733764648 2.511543273925781 12.6078577041626 3.440402984619141 L 11.55014801025391 4.492213249206543 L 10.49245738983154 3.440393447875977 C 9.558427810668945 2.511533737182617 8.315937995910645 1.999994277954102 6.993886947631836 1.999994277954102 M 6.993886947631836 0.4999980926513672 C 8.642945289611816 0.4999980926513672 10.2919979095459 1.125593185424805 11.55016803741455 2.37678337097168 C 12.80838298797607 1.125593185424805 14.45745277404785 0.4999980926513672 16.10652160644531 0.4999980926513672 C 17.75559234619141 0.4999980926513672 19.4046630859375 1.125593185424805 20.66287803649902 2.37678337097168 C 23.17939758300781 4.879063606262207 23.17939758300781 8.936053276062012 20.66305732727051 11.43829345703125 L 11.55016803741455 20.50000381469727 L 2.437568664550781 11.43829345703125 C -0.07880210876464844 8.936053276062012 -0.07880210876464844 4.879063606262207 2.437568664550781 2.37678337097168 C 3.695762634277344 1.125593185424805 5.344827651977539 0.4999980926513672 6.993886947631836 0.4999980926513672 Z" stroke="none" fill="#fff"/>
    </g>
    <g id="Rectangle_2822" data-name="Rectangle 2822" transform="translate(373 579)" fill="none" stroke="#fff" stroke-width="1.5">
      <rect width="40" height="40" rx="20" stroke="none"/>
      <rect x="0.75" y="0.75" width="38.5" height="38.5" rx="19.25" fill="none"/>
    </g>
  </g>
</svg>
