<svg xmlns="http://www.w3.org/2000/svg" width="40" height="42.5" viewBox="0 0 40 42.5">
  <path id="music-animation" d="M51.561,12.3a1.25,1.25,0,0,0-1.006-.285L26.8,15.765A1.251,1.251,0,0,0,25.75,17V41.6a8.456,8.456,0,0,0-5.625-2.1C15.645,39.5,12,42.864,12,47s3.645,7.5,8.125,7.5c4.416,0,8.014-3.271,8.115-7.326,0-.016.01-.03.01-.046V25.567L49.5,22.212V34.1A8.451,8.451,0,0,0,43.875,32c-4.48,0-8.125,3.364-8.125,7.5S39.4,47,43.875,47,52,43.636,52,39.5V13.25A1.248,1.248,0,0,0,51.561,12.3Z" transform="translate(-12 -12)" fill="#ef29b4"/>
</svg>
