<?xml version="1.0" encoding="UTF-8"?>
<svg id="Layer_1" data-name="Layer 1" xmlns="http://www.w3.org/2000/svg" xmlns:xlink="http://www.w3.org/1999/xlink" viewBox="0 0 64 64">
  <defs>
    <style>
      .cls-1 {
        fill: url(#linear-gradient);
      }

      .cls-1, .cls-2 {
        stroke-width: 0px;
      }

      .cls-2 {
        fill: #f87bff;
      }
    </style>
    <linearGradient id="linear-gradient" x1="8.8" y1="37" x2="55.2" y2="37" gradientUnits="userSpaceOnUse">
      <stop offset="0" stop-color="#f066a6"/>
      <stop offset="1" stop-color="#9453ef"/>
    </linearGradient>
  </defs>
  <g>
    <path class="cls-2" d="m16,19.9c.2.8.6,1.6,1.2,2.2.3.3.6.7.9,1,.7.8.8,1.5.2,2.4-.3.4-.7.8-1,1.2-.5.5-1,1.1-1.1,1.8,0,0,0,.1,0,.2,5.5,3.1,12.8.8,14.2.1-.2-.1-.3-.2-.5-.3-.4-.3-.7-.6-.7-1.1,0-.3,0-.6,0-.8,0-.6.4-1,.9-1.1.5-.1,1-.2,1.5-.2.2,0,.5,0,.7,0,.9-.2,1.2-1.1.7-1.8-.2-.3-.2-.6-.3-1,0-.4-.2-.7-.5-1-.2-.2-.3-.4-.3-.7,0-.3,0-.6,0-.8,0-.3,0-.6-.1-.9-.2-.4-.2-.7,0-1.1.3-.4.2-.6-.2-.9-.4-.3-.8-.6-1.1-.8-.4-.2-.7-.6-.8-1-.2-.6-.5-1.1-1-1.5-.7-.6-1-1.4-1.2-2.2-.2-1.1-.6-2-1.3-2.9-.4-.4-.7-.5-1.2-.2-.2,0-.4,0-.6,0-.4,0-.7-.1-1.1-.1-.5,0-.7.1-.8.6,0,.3-.2.4-.5.5-.7.2-1.4.6-2,1.1-.3.3-.7.6-1.1.8-.7.4-1.2.9-1.8,1.5-1,1-1.4,2.3-1.4,3.7,0,.9,0,1.8,0,2.8,0,.3,0,.6.1.9Z"/>
    <path class="cls-1" d="m55.1,29.3c-.6-1.1-.9-2.4-1.2-3.6-.3-1.1-.6-2.2-1.2-3.2-.4-.7-.8-1.3-1.6-1.7-1.4-.7-3-.9-4.5-1.1-.4,0-.7-.1-1-.4-.3-.2-.6-.5-1-.4-.4,0-.7,0-1.1-.3-.4-.3-.7-.4-1.1,0-.1.1-.3.1-.4,0,0,0-.1-.1-.2-.2-.5-.5-.8-.5-1.2.1-.2.3-.4.4-.8.4-.3,0-.6,0-.9,0,0,0-.2,0-.3,0,0,.2,0,.4,0,.6,0,.9-.5,1.7-1.3,2.2.1,0,.2-.1.4-.2.2-.2.4,0,.5,0,.3.3.5.6.7,1,.4.5.7,1,1.4,1,.5,0,1,.1,1.4.3.8.3,1.6.7,2.4,1.2.3.2.5.4.7.7.6,1.2.9,2.5,1.1,3.9.1.8.2,1.6.3,2.4.2,1.4.3,2.8.4,4.2,0,.2,0,.5,0,.7,0,.2-.1.3-.3.2-.2,0-.4-.1-.6-.2-1.2-.4-2.3-1-3.2-1.9-1.2-1.2-2.3-2.4-3.7-3.5-.4-.3-.7-.6-1.1-.8-.4-.2-.8-.4-1.3-.6-.4-.2-.9-.3-1.4-.3-1,0-1.9,0-2.9,0-.5,0-1-.1-1.4-.4h0c-.3.3-4,1.9-8.4,1.9-2.3,0-4.8-.4-7.1-1.7-.2.2-.5.4-.8.6-1,.6-1.8,1.4-2.3,2.5-.9,1.9-1.6,3.9-2.3,5.8-.3,1-.7,2-.9,3-.3,1.1-.4,2.3-.6,3.5,0,.2,0,.4,0,.5.1.2.3.4.4.6,1.2,1.4,2.5,2.7,3.9,3.9,1.5,1.3,3.2,2.3,5,3.2,1.9.9,3.8,1.7,5.8,2.1,1.2.3,2.3.4,3.5.6.4,0,.9.1,1.3.2h3.2c.1,0,.3,0,.4,0,.6,0,1.2,0,1.7-.1,1.1-.2,2.1-.4,3.2-.6.2,0,.3-.1.2-.3-.1-1.9-.3-3.8-.3-5.7,0-2,.1-3.9.2-5.9,0,0,0-.2.1-.3.2-.1.5-.2.7-.3.3-.1.6-.1.8,0,.3.2.6.3.9.5.6.3,1,.2,1.3-.4.1-.2.3-.5.4-.7.1-.2.3-.3.6-.1.2.1.4.2.6.3,1.1.5,2.3.9,3.4,1.4.9.3,1.9.6,2.9.8.7.2,1.4.1,2.1.2.4,0,.7,0,.9-.3.2-.2.4-.4.4-.6.2-.6.4-1.3.6-1.9.1-.4.2-.8.2-1.2-.2-1.6-.6-3.1-1.1-4.7-.5-1.4-.9-2.9-1.3-4.3-.5-1.6-1-3.3-1.4-4.9-.2-.7-.4-1.3-.6-2-.2-.7-.4-1.4-.7-2.1-.2-.5-.3-1-.5-1.5.4,0,.6,0,.9,0,.6,0,1.2,0,1.7,0,.4,0,.7.1,1,.4.1.1.2.3.3.4.5.5.9,1,1.1,1.7.3.8.5,1.7.7,2.5.3,1.1.6,2.2,1.2,3.1,0,.1.2.3.3.4,0,0,0,0,0,0,0-.2,0-.4,0-.6Z"/>
  </g>
  <circle class="cls-2" cx="37.4" cy="19.6" r="2"/>
</svg>