<?xml version="1.0" encoding="UTF-8"?>
<svg id="Layer_1" data-name="Layer 1" xmlns="http://www.w3.org/2000/svg" viewBox="0 0 64 64">
  <defs>
    <style>
      .cls-1 {
        fill: #64717c;
      }

      .cls-2 {
        fill: #4c4c4c;
      }

      .cls-3 {
        fill: #6e17a1;
      }

      .cls-4 {
        fill: #65717c;
      }

      .cls-5 {
        fill: #8e9294;
      }

      .cls-6 {
        fill: #9231be;
      }

      .cls-7 {
        fill: #2db3e9;
      }

      .cls-8 {
        fill: #135694;
      }

      .cls-9 {
        fill: #c06519;
      }

      .cls-10 {
        fill: #f0424f;
      }

      .cls-11 {
        fill: #f7c23d;
      }

      .cls-12 {
        fill: #d2a125;
      }
    </style>
  </defs>
  <polygon class="cls-5" points="28.68 23.85 27.21 23.17 27.79 20.91 30.02 21.94 28.68 23.85"/>
  <g>
    <path class="cls-3" d="M41.61,15.43c-1.37,4.22-2.75,8.44-4.12,12.66-.19,.58-.45,1.15-.29,1.79,0,1.3,0,2.6,0,3.91-.01,.99-.07,1.98-.03,2.97,.03,.76-.32,1.63,.49,2.23,1.36,3.7,3.1,7.24,4.9,10.74,.55,1.75,1.45,3.36,2.23,5.01,.56,1.19,.43,2.17-.74,2.9-1.09,.21-1.77-.33-2.36-1.19-3.12-4.54-6.3-9.04-9.39-13.6-.69-1.02-1.02-1.02-1.71,0-3.1,4.56-6.28,9.05-9.4,13.59-.59,.86-1.26,1.41-2.36,1.2-1.29-.79-1.24-1.85-.67-3.07,1.29-2.75,2.55-5.52,3.82-8.28,.35-.7,.83-1.34,.9-2.16,.8-1.03,1.19-2.26,1.71-3.42,.44-.98,1.13-1.88,1.12-3.04-.02-3.33-.02-6.66-.03-10,.46-.4,.92-.79,1.37-1.2,.82-.74,1.97-1.2,2.13-2.5,.16-.2,.33-.4,.49-.6,1.9,1.13,3.45,.7,4.11-1.12,.66,.05,1.24-.12,1.48-.79,.46-1.26,1.14-2.44,1.31-3.8,.28-.31,.33-.69,.3-1.1,.62-.16,.46-.86,.84-1.19,1.3,.02,2.61,.03,3.91,.05Z"/>
    <path class="cls-7" d="M12.02,28.79c-.01-.79-.38-1.39-1-1.84,.67-.4,1.25-.96,2.08-1.04,1.13,2.07,3.3,2.11,4.65,.07,1.21-.23,2.19,.33,3.17,.9-.98,.7-1.28,1.62-.58,2.63,.57,.83,1.4,1.08,2.31,.38,.39,.09,.46,.4,.54,.74,.51,2.29,.19,4.61,.22,6.91,.01,.73-.61,.72-1.12,.76-1.09,0-2.45-.5-2.39,1.48,.01,.5-.59,.85-1.19,.75-.57-.1-1.01-.49-.96-1.06,.12-1.26-.64-1.23-1.5-1.19-.66,.03-1.33,.04-1.99,0-.74-.05-1.16,.12-1.11,.99,.04,.77-.4,1.24-1.2,1.29-.94,.05-1.11-.64-1.08-1.32,.04-.91-.45-1.01-1.15-.95-.38,.03-.76,.02-1.13,.02-.7-.2-1.25-.56-1.09-1.38,.14-.7,.69-1,1.38-.93,.72,.07,.88-.28,.85-.91-.05-1.13-.03-2.26-.04-3.39,.37-.37,.73-.75,1.1-1.12"/>
    <path class="cls-10" d="M42.56,49.74c-1.8-3.51-3.54-7.04-4.9-10.74,1.07-1.26,2.52-1.72,4.07-1.99,1.59-.09,2.48-.99,2.9-2.46,.39-1.37,.93-2.67,1.94-3.73,.33-.35,.68-.74,1.21-.38,.49,.33,.45,.78,.2,1.25-.16,.29-.35,.58-.42,.9-.26,1.14-.45,2.28,.97,2.87-.57,.62-1.13,1.26-1.72,1.87-.54,.55-.74,1.14-.13,1.73,.61,.6,1.16,.33,1.74-.16,.59-.5,.93-1.35,1.84-1.45,.67,1.42,1.79,1.12,2.92,.75,.48,.03,.96,.07,1.09,.66,.11,.5-.26,.76-.57,1.04-.2,.19-.42,.37-.63,.55-.63,.21-1.25,.45-1.88,.62-1.91,.54-2.44,1.15-2.6,3.11-.28,3.31-2.55,5.4-6.02,5.56Zm.51-10.34c-.47,0-.76,.15-.92,.47-.18,.35-.22,.69,.16,1,.88,.72,1.66,1.53,2.39,2.4,.35,.43,.88,.58,1.35,.08,.41-.43,.33-.86-.05-1.24-.8-.81-1.6-1.61-2.41-2.4-.16-.15-.39-.23-.51-.3Zm.56,5.09c-.43-.8-1.2-1.37-1.88-2.01-.42-.41-.89-.28-1.25,.13-.37,.42-.17,.78,.17,1.12,.47,.47,.95,.93,1.4,1.43,.23,.25,.37,.52,.78,.26,.33-.21,.61-.43,.78-.92Z"/>
    <path class="cls-4" d="M42.56,49.74c3.47-.16,5.74-2.25,6.02-5.56,.17-1.97,.69-2.58,2.6-3.11,.64-.18,1.26-.41,1.88-.62-.35,5.24-.71,10.49-1.04,15.73-.07,1.04-.52,1.56-1.59,1.54-2.13-.04-4.26-.04-6.39-.06,1.17-.73,1.3-1.72,.74-2.9-.78-1.65-1.67-3.25-2.23-5.01Z"/>
    <path class="cls-4" d="M21.97,46.3c-1.27,2.76-2.53,5.53-3.82,8.28-.57,1.22-.62,2.28,.67,3.07-2.14,.02-4.28,.03-6.42,.06-1.08,.02-1.52-.51-1.58-1.56-.18-3.28-.4-6.55-.61-9.83,3.92,0,7.84-.01,11.76-.02Z"/>
    <path class="cls-7" d="M48.54,35.45c-1.41-.58-1.22-1.73-.97-2.87,.07-.31,.26-.61,.42-.9,.25-.47,.29-.92-.2-1.25-.53-.35-.88,.03-1.21,.38-1.01,1.05-1.54,2.36-1.94,3.73-.42,1.48-1.31,2.38-2.9,2.46,0-1.8,0-3.61,0-5.5-1.79,.53-3.02,1.69-4.53,2.29,0-1.3,0-2.6,0-3.91,2.11-1.14,4.23-2.27,6.33-3.42,.5-.28,1-.52,1.58-.56,.39,1.17,1.28,1.52,2.41,1.5,1.08-.02,1.9-.43,2.25-1.54,1.86,.54,3.13,1.86,4.36,3.25-1.91,.2-2.37,.89-1.85,2.8-1.25,1.17-2.5,2.35-3.74,3.52Z"/>
    <path class="cls-11" d="M20.53,19.13c.42,.77,.16,1.36-.34,2.02-.77,1.01-1.55,1.99-2.5,2.82-1.5,.68-3.01,.68-4.51,0-1-.85-1.82-1.87-2.6-2.92-.43-.58-.72-1.21-.25-1.93,.13,.29,.26,.58,.46,1.03,.15-.71,.24-1.22,.36-1.73,.13-.55,.27-1.1,.43-1.64,.35-1.23,1.04-1.73,2.33-1.19,.89,.37,1.78,.46,2.75,.07,1.57-.63,2.03-.35,2.68,1.24,.38,.92,.26,2,.83,2.94,.16-.31,.27-.52,.37-.73Z"/>
    <path class="cls-11" d="M45.18,23.98c-1.01-.85-1.82-1.87-2.59-2.93-.42-.58-.74-1.21-.26-1.92,.13,.29,.26,.58,.43,.97,.3-1.2,.54-2.26,.82-3.31,.33-1.24,1.04-1.73,2.33-1.19,.89,.37,1.78,.46,2.75,.07,1.57-.63,2.03-.35,2.68,1.24,.38,.92,.26,2,.83,2.94,.16-.32,.27-.52,.37-.73,.43,.77,.13,1.36-.35,2.02-.75,1.03-1.57,1.96-2.49,2.83-1.5,.68-3.01,.68-4.51,0Z"/>
    <path class="cls-8" d="M8.58,38.31c.38,0,.76,0,1.13-.02,.7-.05,1.19,.04,1.15,.95-.03,.67,.14,1.37,1.08,1.32,.8-.05,1.24-.51,1.2-1.29-.05-.87,.38-1.04,1.11-.99,.66,.04,1.33,.03,1.99,0,.86-.04,1.62-.07,1.5,1.19-.05,.57,.39,.96,.96,1.06,.6,.1,1.2-.24,1.19-.75-.05-1.98,1.3-1.48,2.39-1.48,0,1.89,0,3.77,0,5.66-4.57,0-9.14,0-13.71,0,0-1.88,0-3.76,0-5.64Z"/>
    <path class="cls-11" d="M36.86,16.58c.03,.4-.02,.78-.3,1.1-1.2,.72-1.76,2.07-2.87,2.88-.87,.12-1.64,.71-2.57,.55-.67,.4-.89,.22-1.94-.48-.74-.49-1.16-1.21-1.16-1.21,0,0-1.8-1.71-1.73-3.11,.59,.42,.6-.11,.68-.44,.22-.82,.39-1.65,.61-2.47,.33-1.22,1.02-1.77,2.32-1.21,.99,.43,1.98,.45,3.01-.03,1.03-.48,1.87-.19,2.24,.95,.35,1.08,.63,2.18,.99,3.42,.19-.39,.29-.59,.39-.8,.16,.27-.05,.69,.34,.87Z"/>
    <path class="cls-9" d="M36.52,15.71c-.1,.21-.2,.42-.39,.8-.35-1.23-.64-2.33-.99-3.42-.37-1.15-1.21-1.44-2.24-.95-1.03,.48-2.02,.46-3.01,.03-1.3-.56-1.98-.01-2.32,1.21-.22,.82-.4,1.65-.61,2.47-.09,.33-.09,.86-.68,.44-.03-.71,0-1.43-.1-2.12-.53-3.77,1.81-4.84,4.74-5.62,.27-.07,.57-.05,.85,0,1.34,.19,2.84-.65,3.79,1.37,.69,1.46,1.42,2.73,1.1,4.38-.09,.46-.1,.94-.14,1.41Z"/>
    <path class="cls-9" d="M20.53,19.13c-.11,.21-.21,.41-.37,.73-.57-.95-.45-2.02-.83-2.94-.65-1.59-1.11-1.87-2.68-1.24-.96,.39-1.86,.3-2.75-.07-1.29-.54-1.98-.05-2.33,1.19-.15,.54-.3,1.09-.43,1.64-.12,.5-.21,1.01-.36,1.73-.2-.45-.33-.74-.46-1.03-.05-.52-.08-1.04-.15-1.55-.53-3.74,1.8-4.83,4.75-5.59,.27-.07,.57-.04,.85,0,1.34,.19,2.84-.66,3.79,1.37,.68,1.46,1.41,2.72,1.09,4.37-.09,.46-.09,.94-.13,1.41Z"/>
    <path class="cls-9" d="M52.54,19.13c-.11,.21-.21,.41-.37,.73-.57-.95-.45-2.02-.83-2.94-.65-1.59-1.11-1.87-2.68-1.24-.96,.39-1.86,.3-2.75-.07-1.29-.54-1.99-.05-2.33,1.19-.28,1.05-.52,2.1-.82,3.31-.17-.39-.3-.68-.43-.97-.05-.52-.08-1.04-.15-1.55-.53-3.73,1.8-4.83,4.75-5.59,.27-.07,.57-.04,.85,0,1.34,.19,2.84-.66,3.79,1.37,.68,1.46,1.41,2.72,1.09,4.37-.09,.46-.09,.94-.13,1.41Z"/>
    <path class="cls-11" d="M22.64,29.89c-.91,.69-1.73,.44-2.31-.38-.7-1-.4-1.92,.58-2.63,1.65-1.26,3.3-2.52,4.93-3.8,.53-.42,1.05-.8,1.75-.85,.88,.26,1.43,.82,1.58,1.75-.15,1.31-1.31,1.76-2.13,2.5-.45,.41-.92,.8-1.37,1.2-1.01,.74-2.02,1.47-3.03,2.21Z"/>
    <path class="cls-7" d="M8.57,43.96c4.57,0,9.14,0,13.71,0,.2,.06,.4,.12,.59,.18-.07,.82-.55,1.46-.9,2.16-3.92,0-7.84,.01-11.76,.02-.42-.02-.84-.06-1.25-.05-.73,.02-1.34-.18-1.48-.96-.14-.79,.39-1.17,1.09-1.36Z"/>
    <path class="cls-11" d="M41.61,15.43c-1.3-.02-2.61-.03-3.91-.05,1-2.65,1.98-5.31,3.01-7.95,.38-.96,1.13-1.43,2.17-1.01,.98,.41,1.31,1.21,.98,2.22-.74,2.27-1.5,4.53-2.26,6.79Z"/>
    <path class="cls-11" d="M11.02,26.95c.62,.46,.99,1.05,1,1.84-.26,.71-.83,1.2-1.25,1.79-.37,.37-.73,.75-1.1,1.12-.52,.48-1.03,.96-1.55,1.44-.83,.75-1.72,.81-2.51,0-.76-.78-.6-1.62,.08-2.4,.8-.92,1.84-1.63,2.5-2.68,.67-.34,1.1-1.04,1.86-1.25,.33,.05,.65,.09,.98,.14Z"/>
    <path class="cls-11" d="M52.28,31.92c-.52-1.9-.06-2.6,1.85-2.8,.23,.08,.46,.17,.7,.25,.44,.95,1.34,1.45,2.08,2.1,.21,.31,.45,.6,.62,.93,.41,.79,.19,1.49-.43,2.04-.65,.56-1.38,.57-2.08,.07-.42-.3-.8-.65-1.2-.98-.35-.69-.94-1.15-1.54-1.61Z"/>
    <path class="cls-2" d="M52.28,31.92c.6,.46,1.19,.92,1.54,1.61-.23,.27-.45,.54-.68,.81-1.05,.95-2.21,1.79-2.88,3.1-.91,.1-1.24,.95-1.84,1.45-.58,.49-1.13,.76-1.74,.16-.6-.59-.4-1.18,.13-1.73,.59-.61,1.15-1.25,1.72-1.87,1.25-1.17,2.5-2.35,3.74-3.52Z"/>
    <path class="cls-12" d="M45.18,23.98c1.5,.68,3.01,.68,4.51,0,.03,.63,.05,1.26,.08,1.9-.34,1.11-1.16,1.52-2.25,1.54-1.13,.02-2.02-.34-2.41-1.5,.02-.64,.05-1.28,.07-1.93Z"/>
    <path class="cls-12" d="M13.17,23.98c1.5,.68,3.01,.68,4.51,0,.02,.67,.05,1.33,.07,2-1.35,2.04-3.52,2-4.65-.07,.02-.64,.05-1.29,.07-1.93Z"/>
    <path class="cls-4" d="M10.05,26.81c-.76,.21-1.19,.91-1.86,1.25-.67-.67-1.35-1.33-2.02-2-.55-.55-.68-1.17-.08-1.74,.54-.52,1.14-.42,1.64,.08,.79,.79,1.54,1.61,2.31,2.42Z"/>
    <path class="cls-7" d="M50.26,37.44c.67-1.31,1.83-2.15,2.88-3.1,.01,1.29,.03,2.57,.04,3.85-1.13,.36-2.25,.67-2.92-.75Z"/>
    <path class="cls-2" d="M56.91,31.47c-.74-.65-1.64-1.15-2.08-2.1,.98-.44,1.96-.33,2.97-.1,.65,.14,1.2,.33,1.08,1.13-.1,.71-.57,1.03-1.27,1.05-.23,0-.47,.02-.7,.03Z"/>
    <path class="cls-12" d="M29.66,23.38c.15-.55,.13-1.73,.27-2.28,.34-.22,.84,.21,1.18,0,.93,.16,1.7-.43,2.57-.55,.03,.57,.05,1.14,.08,1.71-.65,1.83-2.21,2.25-4.11,1.12Z"/>
    <path class="cls-4" d="M43.08,39.39c.12,.07,.35,.15,.51,.3,.81,.79,1.61,1.59,2.41,2.4,.38,.39,.46,.82,.05,1.24-.48,.5-1,.35-1.35-.08-.73-.88-1.51-1.69-2.39-2.4-.38-.31-.34-.65-.16-1,.16-.32,.45-.47,.92-.47Z"/>
    <path class="cls-4" d="M43.63,44.48c-.16,.48-.45,.71-.78,.92-.41,.26-.55,0-.78-.26-.44-.5-.93-.96-1.4-1.43-.34-.33-.54-.7-.17-1.12,.36-.41,.83-.53,1.25-.13,.67,.65,1.44,1.22,1.88,2.01Z"/>
  </g>
  <circle class="cls-1" cx="29.43" cy="20.46" r="1.71"/>
  <path class="cls-6" d="M24.57,40.75c-.52,1.16-.91,2.39-1.71,3.42-.07,.82-.55,1.46-.9,2.16-1.27,2.76-2.53,5.53-3.82,8.28-.57,1.22-.62,2.28,.67,3.07,1.09,.21,1.77-.34,2.36-1.2,3.12-4.54,6.3-9.04,9.4-13.59,.69-1.02,1.02-1.02,1.71,0,3.1,4.56,6.27,9.06,9.39,13.6,.59,.86,1.27,1.4,2.36,1.19,1.17-.73,1.3-1.72,.74-2.9-.78-1.65-1.67-3.25-2.23-5.01-1.8-3.51-3.54-7.04-4.9-10.74-.29-.22-.43-.47-.49-.74h-11.52c-.17,.9-.7,1.65-1.07,2.46Z"/>
</svg>