<?xml version="1.0" encoding="UTF-8"?>
<svg id="Layer_1" data-name="Layer 1" xmlns="http://www.w3.org/2000/svg" xmlns:xlink="http://www.w3.org/1999/xlink" viewBox="0 0 64 64">
  <defs>
    <style>
      .cls-1 {
        fill: #f87bff;
      }

      .cls-2 {
        fill: url(#linear-gradient);
      }
    </style>
    <linearGradient id="linear-gradient" x1="17.49" y1="62.74" x2="46.8" y2="33.44" gradientUnits="userSpaceOnUse">
      <stop offset="0" stop-color="#aa53d5"/>
      <stop offset="1" stop-color="#9453ef"/>
    </linearGradient>
  </defs>
  <path class="cls-2" d="M55.12,50.68c-1.19-3.84-2.44-7.65-3.68-11.47-.46-1.43-1.31-2.62-2.5-3.53-2.26-1.75-4.79-2.2-7.5-1.27-2.53,.87-5.11,1.4-7.77,1.53-3.78,.18-7.46-.3-11.03-1.6-1.19-.43-2.44-.49-3.66-.27-3.1,.56-5.19,2.38-6.19,5.36-1.23,3.7-2.4,7.43-3.59,11.14-.19,.61-.33,1.23-.27,1.87,.29,2.79,2.3,4.6,5.11,4.6,6.05,0,12.1,0,18.15,0h0c6.07,0,12.13,0,18.2,0,3.39,0,5.73-3.13,4.72-6.37Z"/>
  <circle class="cls-1" cx="32.16" cy="19.28" r="12.23"/>
</svg>