<?xml version="1.0" encoding="UTF-8"?>
<svg id="Layer_1" data-name="Layer 1" xmlns="http://www.w3.org/2000/svg" xmlns:xlink="http://www.w3.org/1999/xlink" viewBox="0 0 64 64">
  <defs>
    <style>
      .cls-1 {
        fill: #fff;
      }

      .cls-2 {
        fill: #ffc5fa;
      }

      .cls-3 {
        fill: #f87bff;
      }

      .cls-4 {
        fill: url(#linear-gradient);
      }
    </style>
    <linearGradient id="linear-gradient" x1="7.31" y1="56.53" x2="38.89" y2="24.94" gradientUnits="userSpaceOnUse">
      <stop offset="0" stop-color="#aa53d5"/>
      <stop offset="1" stop-color="#9453ef"/>
    </linearGradient>
  </defs>
  <rect class="cls-3" x="24.63" y="7" width="32.53" height="32.53" rx="1.62" ry="1.62"/>
  <rect class="cls-2" x="15.73" y="15.57" width="32.53" height="32.53" rx="1.62" ry="1.62"/>
  <rect class="cls-4" x="6.84" y="24.47" width="32.53" height="32.53" rx="1.62" ry="1.62"/>
  <path class="cls-1" d="M29.4,31.99h-5.6c-.86,0-1.55,.69-1.55,1.55v1.49s0,.06,0,.1c0,.01,0,.03,0,.04v7.34c-.61-.26-1.29-.41-1.99-.41-2.8,0-5.07,2.27-5.07,5.07s2.27,5.07,5.07,5.07,5.07-2.27,5.07-5.07c0-.16,0-.32-.02-.48,.02-.07,.02-.14,.02-.21v-9.9h4.07c.86,0,1.55-.69,1.55-1.55v-1.49c0-.86-.69-1.55-1.55-1.55Z"/>
</svg>