<svg xmlns="http://www.w3.org/2000/svg" width="18.988" height="18.992" viewBox="0 0 18.988 18.992">
  <path id="artists" d="M13.183,10.633a5.682,5.682,0,0,0,2.072-5.322A5.728,5.728,0,0,0,3.873,6.2a5.674,5.674,0,0,0,2.139,4.438,9.048,9.048,0,0,0-5.9,7.8.96.96,0,0,0,.952,1.053A.94.94,0,0,0,2,18.643,7.251,7.251,0,0,1,9.6,11.892a7.252,7.252,0,0,1,7.594,6.751.94.94,0,0,0,.942.846.96.96,0,0,0,.953-1.053A9.05,9.05,0,0,0,13.183,10.633ZM9.6,9.993a3.8,3.8,0,1,1,3.815-3.8A3.812,3.812,0,0,1,9.6,9.993Z" transform="translate(-0.103 -0.497)" fill="#a4a4a4" fill-rule="evenodd"/>
</svg>
