<svg xmlns="http://www.w3.org/2000/svg" width="23.926" height="22.884" viewBox="0 0 23.926 22.884">
  <g id="edit-profile" transform="translate(0 0.543)">
    <path id="Path_1040" data-name="Path 1040" d="M85.752,10.139A5.341,5.341,0,1,0,80.411,4.8,5.341,5.341,0,0,0,85.752,10.139Zm0-9.671a4.33,4.33,0,1,1-4.33,4.33A4.33,4.33,0,0,1,85.752.468Zm0,0" transform="translate(-77.157)" fill="#fff"/>
    <path id="Path_1041" data-name="Path 1041" d="M21.378,285.507a.5.5,0,0,0-.712,0l-1.319,1.319-3.254,3.254A8.592,8.592,0,0,0,0,294.269a.507.507,0,0,0,.505.505H13.041l-.414,1.238a.5.5,0,0,0,.121.515.508.508,0,0,0,.359.147.6.6,0,0,0,.162-.025l3.592-1.2c.005,0,.005,0,.01-.005a.172.172,0,0,0,.046-.02.017.017,0,0,0,.01-.005c.015-.01.035-.02.051-.03s.03-.025.045-.035.01-.005.01-.01.015-.01.02-.02l5.406-5.391,1.319-1.319a.5.5,0,0,0,0-.713Zm-4.669,8.746-1.683-1.683L19.7,287.9l1.683,1.683Zm-15.679-.5a7.582,7.582,0,0,1,14.32-2.935l-1.395,1.394-.02.02c-.005,0-.005.01-.01.01a.683.683,0,0,0-.066.1.018.018,0,0,1-.005.01c0,.015-.015.03-.02.046s0,0-.005.01l-.45,1.349H1.03Zm13.506-.253,1.238,1.238-1.859.622Zm7.564-4.643-1.682-1.683.6-.6,1.683,1.683Zm0,0" transform="translate(0 -274.333)" fill="#fff"/>
  </g>
</svg>
