<svg xmlns="http://www.w3.org/2000/svg" width="21.631" height="18.623" viewBox="0 0 21.631 18.623">
  <path id="Path_1038" data-name="Path 1038" d="M1.088,40.094a4.488,4.488,0,0,1,3.4-7.417,4.454,4.454,0,0,1,2.929,1.088l.092-.091a.345.345,0,0,1,.484.492l-.09.089a4.454,4.454,0,0,1,1.071,2.91q0,.208-.019.413l9.579,10.706a.345.345,0,0,1-.013.474l-.976.976.2.2a1.874,1.874,0,1,0,2.651-2.651L13.909,40.8a2.565,2.565,0,0,1,3.627-3.627l3.994,3.994-.488.488-3.994-3.994A1.874,1.874,0,0,0,14.4,40.308l6.483,6.483a2.565,2.565,0,0,1-3.627,3.627l-.2-.2-.976.976a.345.345,0,0,1-.474.013L6.425,43,4.9,41.633q-.2.019-.413.019a4.454,4.454,0,0,1-2.909-1.071l-.091.091A.345.345,0,1,1,1,40.185ZM15.824,50.48l.989-.989.99-.99-7.638-8.537a6.347,6.347,0,0,1-2.878,2.878l8.537,7.638Zm-9.1-8.14A5.649,5.649,0,0,0,9.663,39.4l-.869-.971a4.5,4.5,0,0,1-3.039,3.039ZM4.487,40.961A3.8,3.8,0,0,0,7.41,34.741l-.728.717a.345.345,0,1,1-.485-.492l.725-.714A3.8,3.8,0,0,0,1.578,39.6l3.642-3.658a.345.345,0,0,1,.489.487L2.067,40.09a3.768,3.768,0,0,0,2.421.872Z" transform="translate(0 -32.677)" fill="#fff"/>
</svg>
