<svg id="logout" xmlns="http://www.w3.org/2000/svg" width="22.092" height="24.135" viewBox="0 0 22.092 24.135">
  <path id="Path_1064" data-name="Path 1064" d="M249.636,160.051l-1.067,1.067,3.238,3.238H241.119v1.508h10.689L248.57,169.1l1.067,1.067,5.059-5.059Z" transform="translate(-232.603 -153.042)" fill="#fff"/>
  <path id="Path_1065" data-name="Path 1065" d="M14.72,22.627H1.338V1.508H14.72V3.017h1.338V.754A.715.715,0,0,0,15.39,0H.669A.715.715,0,0,0,0,.754V23.381a.715.715,0,0,0,.669.754H15.39a.715.715,0,0,0,.669-.754V21.118H14.72Z" fill="#fff"/>
</svg>
