<svg xmlns="http://www.w3.org/2000/svg" width="44.528" height="44.527" viewBox="0 0 44.528 44.527">
  <g id="premium" transform="translate(0.001 -0.002)">
    <path id="Path_1042" data-name="Path 1042" d="M66.838,46.923A19.915,19.915,0,1,1,46.923,27.008,19.915,19.915,0,0,1,66.838,46.923Zm0,0" transform="translate(-24.66 -24.657)" fill="#b665c2"/>
    <path id="Path_1043" data-name="Path 1043" d="M46.923,28.225a19.915,19.915,0,0,1,19.9,19.306c.006-.2.01-.4.01-.609a19.915,19.915,0,0,0-39.83,0c0,.2,0,.407.01.609a19.914,19.914,0,0,1,19.9-19.306Zm0,0" transform="translate(-24.66 -24.657)" fill="#d476e2"/>
    <path id="Path_1044" data-name="Path 1044" d="M46.923,268.306A19.914,19.914,0,0,1,27.018,249c-.006.2-.01.405-.01.609a19.915,19.915,0,1,0,39.83,0c0-.2,0-.406-.01-.609a19.914,19.914,0,0,1-19.9,19.306Zm0,0" transform="translate(-24.66 -227.343)" fill="#9b56a6"/>
    <path id="Path_1045" data-name="Path 1045" d="M67.309,50.994l2.366-1.658,1.857,2.214,2.715-.989,1.22,2.619,2.878-.252.5,2.845,2.845.5-.253,2.878,2.619,1.22-.989,2.715,2.214,1.857-1.658,2.366,1.658,2.366-2.214,1.857.989,2.714-2.619,1.221.253,2.878-2.845.5-.5,2.845-2.878-.252-1.22,2.619-2.715-.989-1.857,2.214-2.366-1.658-2.366,1.658-1.857-2.214-2.715.989-1.22-2.619-2.878.252-.5-2.845-2.845-.5.253-2.878-2.619-1.221.989-2.714-2.214-1.857,1.657-2.366-1.657-2.366,2.214-1.857-.989-2.715,2.619-1.22-.253-2.878,2.845-.5.5-2.845,2.878.252,1.22-2.619,2.715.989,1.857-2.214Zm0,0" transform="translate(-45.046 -45.044)" fill="#d476e2"/>
    <path id="Path_1046" data-name="Path 1046" d="M106.486,90.745A15.741,15.741,0,1,1,90.745,75,15.741,15.741,0,0,1,106.486,90.745Zm0,0" transform="translate(-68.482 -68.479)" fill="#b665c2"/>
    <path id="Path_1047" data-name="Path 1047" d="M42.39,75.974a.855.855,0,0,1,0-.622l2.079-5.339a.857.857,0,0,0-.8-1.168H29.261l1.285-7.165a.349.349,0,0,0-.587-.312l-3.7,3.585-3.7-6.3a.349.349,0,0,0-.6,0l-3.7,6.3-3.7-3.585a.349.349,0,0,0-.587.313l1.285,7.165H.858a.857.857,0,0,0-.8,1.168l2.08,5.339a.857.857,0,0,1,0,.622L.06,81.313a.857.857,0,0,0,.8,1.168H43.671a.857.857,0,0,0,.8-1.168Zm0,0" transform="translate(-0.002 -53.397)" fill="#ff8354"/>
    <path id="Path_1048" data-name="Path 1048" d="M333.938,178.827h14.628a.848.848,0,0,1,.658.309l.14-.359a.857.857,0,0,0-.8-1.168h-14.41Zm0,0" transform="translate(-304.897 -162.161)" fill="#ffac8c"/>
    <path id="Path_1049" data-name="Path 1049" d="M.2,179.136a.849.849,0,0,1,.658-.309H15.486l-.218-1.218H.858a.857.857,0,0,0-.8,1.168Zm0,0" transform="translate(-0.001 -162.161)" fill="#ffac8c"/>
    <path id="Path_1050" data-name="Path 1050" d="M160.921,62.863a.34.34,0,0,1,.375.071l3.7,3.585,3.7-6.3a.349.349,0,0,1,.6,0l3.7,6.3,3.7-3.585a.34.34,0,0,1,.375-.071l.212-1.182a.35.35,0,0,0,.006-.061.337.337,0,0,0-.017-.112.357.357,0,0,0-.32-.239.338.338,0,0,0-.209.06.383.383,0,0,0-.047.039l-3.7,3.585-3.7-6.3a.368.368,0,0,0-.059-.076.345.345,0,0,0-.073-.054.35.35,0,0,0-.411.054.368.368,0,0,0-.059.076l-3.7,6.3-3.7-3.585a.386.386,0,0,0-.048-.039.337.337,0,0,0-.209-.06.357.357,0,0,0-.32.239.353.353,0,0,0-.017.112.386.386,0,0,0,.006.061Zm0,0" transform="translate(-146.728 -53.398)" fill="#ffac8c"/>
    <path id="Path_1051" data-name="Path 1051" d="M44.33,316.832a.847.847,0,0,1-.658.31H.86a.847.847,0,0,1-.658-.31l-.14.36a.857.857,0,0,0,.8,1.168H43.672a.857.857,0,0,0,.8-1.168Zm0,0" transform="translate(-0.003 -289.276)" fill="#e0734a"/>
    <g id="Group_1466" data-name="Group 1466" transform="translate(4.618 19.267)">
      <path id="Path_1052" data-name="Path 1052" d="M53.109,226.868V222.1a.57.57,0,0,1,.57-.57h1.494a2.238,2.238,0,0,1,.783.135,1.932,1.932,0,0,1,.635.381,1.816,1.816,0,0,1,0,2.679,1.926,1.926,0,0,1-.635.381,2.239,2.239,0,0,1-.783.136h-.958v1.63a.524.524,0,0,1-.525.524h-.058a.523.523,0,0,1-.524-.524Zm2.08-2.679a.838.838,0,0,0,.656-.246.823.823,0,0,0,.221-.565.892.892,0,0,0-.053-.3.7.7,0,0,0-.164-.258.806.806,0,0,0-.275-.176,1.036,1.036,0,0,0-.385-.066h-.975v1.614Zm0,0" transform="translate(-53.109 -221.527)" fill="#ffefe4"/>
      <path id="Path_1053" data-name="Path 1053" d="M108.867,222.1a.57.57,0,0,1,.57-.57h1.568a2.214,2.214,0,0,1,.8.139,1.856,1.856,0,0,1,.619.385,1.684,1.684,0,0,1,.4.586,1.938,1.938,0,0,1,.139.741,1.532,1.532,0,0,1-.1.553,1.642,1.642,0,0,1-.27.467,1.987,1.987,0,0,1-.4.369,2.043,2.043,0,0,1-.483.25l-.008.057,1,1.436a.562.562,0,0,1-.424.883.466.466,0,0,1-.413-.2l-1.378-2h-.516v1.68a.524.524,0,0,1-.524.524h-.058a.524.524,0,0,1-.524-.524Zm2.13,2.076a.862.862,0,0,0,.618-.229.768.768,0,0,0,.242-.582.89.89,0,0,0-.053-.3.748.748,0,0,0-.16-.262.782.782,0,0,0-.266-.184.909.909,0,0,0-.365-.07h-1.04v1.63Zm0,0" transform="translate(-104.018 -221.527)" fill="#ffefe4"/>
      <path id="Path_1054" data-name="Path 1054" d="M168.375,222.579v1.36H170.2a.524.524,0,0,1,.524.524h0a.525.525,0,0,1-.524.525h-1.827v1.36h2.089a.524.524,0,0,1,.524.524h0a.524.524,0,0,1-.524.524H167.84a.57.57,0,0,1-.57-.57V222.1a.57.57,0,0,1,.57-.57h2.624a.524.524,0,0,1,0,1.048h-2.089Zm0,0" transform="translate(-157.341 -221.531)" fill="#ffefe4"/>
      <path id="Path_1055" data-name="Path 1055" d="M222.282,221.527h.19a.57.57,0,0,1,.494.285l1.629,2.82h.066l1.629-2.82a.57.57,0,0,1,.494-.285h.2a.57.57,0,0,1,.57.57v4.771a.524.524,0,0,1-.524.524h-.05a.524.524,0,0,1-.524-.524V224.5l.066-.983h-.066l-1.327,2.34a.57.57,0,0,1-.991,0l-1.335-2.342h-.066l.066.983v2.367a.525.525,0,0,1-.525.524h-.041a.525.525,0,0,1-.525-.524V222.1A.57.57,0,0,1,222.282,221.527Zm0,0" transform="translate(-207.049 -221.527)" fill="#ffefe4"/>
      <path id="Path_1056" data-name="Path 1056" d="M302.962,221.527h.058a.525.525,0,0,1,.525.524v4.817a.525.525,0,0,1-.525.524h-.058a.524.524,0,0,1-.524-.524v-4.817A.524.524,0,0,1,302.962,221.527Zm0,0" transform="translate(-280.754 -221.527)" fill="#ffefe4"/>
      <path id="Path_1057" data-name="Path 1057" d="M329.484,227.524a2.515,2.515,0,0,1-.938-.168,1.928,1.928,0,0,1-.716-.487,2.254,2.254,0,0,1-.459-.774,3.042,3.042,0,0,1-.164-1.036v-3.007a.524.524,0,0,1,.524-.524h.058a.524.524,0,0,1,.524.524v3.072a1.868,1.868,0,0,0,.074.54,1.209,1.209,0,0,0,.22.426,1.022,1.022,0,0,0,.369.283,1.192,1.192,0,0,0,.508.1,1.211,1.211,0,0,0,.516-.1,1.013,1.013,0,0,0,.369-.283,1.21,1.21,0,0,0,.221-.426,1.856,1.856,0,0,0,.074-.54v-3.072a.524.524,0,0,1,.524-.524h.058a.524.524,0,0,1,.524.524v3.007a3,3,0,0,1-.16,1,2.208,2.208,0,0,1-.459.778,2.085,2.085,0,0,1-.721.5A2.4,2.4,0,0,1,329.484,227.524Zm0,0" transform="translate(-303.37 -221.528)" fill="#ffefe4"/>
      <path id="Path_1058" data-name="Path 1058" d="M392.3,221.527h.19a.571.571,0,0,1,.494.285l1.629,2.82h.065l1.63-2.82a.57.57,0,0,1,.494-.285h.2a.57.57,0,0,1,.57.57v4.771a.524.524,0,0,1-.524.524H397a.524.524,0,0,1-.524-.524V224.5l.066-.983h-.066l-1.327,2.34a.57.57,0,0,1-.991,0l-1.335-2.342h-.065l.065.983v2.367a.524.524,0,0,1-.524.524h-.041a.524.524,0,0,1-.524-.524V222.1A.57.57,0,0,1,392.3,221.527Zm0,0" transform="translate(-362.285 -221.527)" fill="#ffefe4"/>
    </g>
    <path id="Path_1059" data-name="Path 1059" d="M221.43,351.5l1.7.895a.271.271,0,0,0,.393-.285l-.325-1.895,1.377-1.342a.271.271,0,0,0-.15-.462l-1.9-.277-.851-1.724a.271.271,0,0,0-.485,0l-.851,1.724-1.9.277a.271.271,0,0,0-.15.462l1.377,1.342-.325,1.895a.27.27,0,0,0,.392.285Zm0,0" transform="translate(-199.226 -316.146)" fill="#ff8354"/>
    <path id="Path_1060" data-name="Path 1060" d="M160.371,349.185l.949.5a.151.151,0,0,0,.219-.159l-.181-1.056.768-.748a.151.151,0,0,0-.084-.258l-1.061-.154-.474-.961a.151.151,0,0,0-.271,0l-.474.961-1.061.154a.151.151,0,0,0-.084.258l.767.748-.181,1.056a.151.151,0,0,0,.219.159Zm0,0" transform="translate(-144.782 -316.148)" fill="#ff8354"/>
    <path id="Path_1061" data-name="Path 1061" d="M312.483,349.185l.949.5a.151.151,0,0,0,.219-.159l-.181-1.056.767-.748a.151.151,0,0,0-.084-.258l-1.061-.154-.474-.961a.151.151,0,0,0-.27,0l-.475.961-1.061.154a.151.151,0,0,0-.084.258l.768.748-.181,1.056a.151.151,0,0,0,.219.159Zm0,0" transform="translate(-283.665 -316.148)" fill="#ff8354"/>
    <path id="Path_1062" data-name="Path 1062" d="M6.486,6.118,9.093,5.29a.569.569,0,0,0,0-1.085L6.486,3.377a.569.569,0,0,1-.371-.37L5.287.4A.569.569,0,0,0,4.2.4L3.374,3.007A.569.569,0,0,1,3,3.377L.4,4.2A.569.569,0,0,0,.4,5.29L3,6.118a.569.569,0,0,1,.371.37L4.2,9.1a.569.569,0,0,0,1.085,0l.828-2.608a.568.568,0,0,1,.37-.37Zm0,0" transform="translate(0)" fill="#69ebfc"/>
    <path id="Path_1063" data-name="Path 1063" d="M394.014,434.69l1.957-.621a.427.427,0,0,0,0-.815l-1.957-.621a.427.427,0,0,1-.278-.278l-.621-1.957a.427.427,0,0,0-.815,0l-.621,1.957a.428.428,0,0,1-.278.278l-1.957.621a.427.427,0,0,0,0,.815l1.957.621a.428.428,0,0,1,.278.278l.621,1.957a.427.427,0,0,0,.815,0l.621-1.957A.425.425,0,0,1,394.014,434.69Zm0,0" transform="translate(-355.304 -392.693)" fill="#69ebfc"/>
  </g>
</svg>
