<svg id="shopping-cart" xmlns="http://www.w3.org/2000/svg" width="18" height="19.062" viewBox="0 0 18 19.062">
  <path id="Path_984" data-name="Path 984" d="M5.4,15.25a1.909,1.909,0,0,0,0,3.812,1.909,1.909,0,0,0,0-3.812ZM0,0V1.906H1.8L5.04,9.15,3.78,11.437a3.562,3.562,0,0,0-.18.953A1.861,1.861,0,0,0,5.4,14.3H16.2V12.39H5.76a.2.2,0,0,1-.18-.191v-.1l.81-1.62h6.66a1.632,1.632,0,0,0,1.53-.953l3.24-6.2A.541.541,0,0,0,18,2.859a.876.876,0,0,0-.9-.953H3.78L2.97,0ZM14.4,15.25a1.909,1.909,0,1,0,1.8,1.906A1.861,1.861,0,0,0,14.4,15.25Z" fill="#fff"/>
</svg>
