<svg xmlns="http://www.w3.org/2000/svg" width="18.977" height="18.997" viewBox="0 0 18.977 18.997">
  <path id="song" d="M17.09,0h-9.5A1.9,1.9,0,0,0,5.7,1.9V11.912A5.192,5.192,0,0,0,3.809,11.4,3.741,3.741,0,0,0,.181,14.048,3.809,3.809,0,0,0,3.67,19a3.922,3.922,0,0,0,3.925-3.991V2.855a.95.95,0,0,1,.95-.95H16.14a.95.95,0,0,1,.95.95v9.057A5.2,5.2,0,0,0,15.2,11.4a3.743,3.743,0,0,0-3.628,2.645A3.81,3.81,0,0,0,15.063,19a3.923,3.923,0,0,0,3.926-3.991V1.9A1.9,1.9,0,0,0,17.09,0Z" transform="translate(-0.012 -0.005)" fill="#a4a4a4" fill-rule="evenodd"/>
</svg>
