<svg id="Group_1462" data-name="Group 1462" xmlns="http://www.w3.org/2000/svg" width="20" height="18.834" viewBox="0 0 20 18.834">
  <g id="Group_28" data-name="Group 28">
    <rect id="Rectangle_3478" data-name="Rectangle 3478" width="20" height="18.834" fill="#ef6129"/>
    <path id="Path_1023" data-name="Path 1023" d="M27.088,12.1A.534.534,0,0,0,26.7,12l-9.058,1.224a.434.434,0,0,0-.4.4v8.032a3.555,3.555,0,0,0-2.145-.686c-1.709,0-3.1,1.1-3.1,2.449s1.39,2.449,3.1,2.449c1.684,0,3.056-1.068,3.095-2.392,0-.005,0-.01,0-.015V16.43l8.1-1.1v3.882a3.552,3.552,0,0,0-2.145-.686c-1.709,0-3.1,1.1-3.1,2.449s1.39,2.449,3.1,2.449,3.1-1.1,3.1-2.449v-8.57A.386.386,0,0,0,27.088,12.1Z" transform="translate(-10.104 -9.521)" fill="#fff"/>
  </g>
</svg>
