<svg id="karaoke-svgrepo-com" xmlns="http://www.w3.org/2000/svg" width="20.116" height="17.133" viewBox="0 0 20.116 17.133">
  <g id="Group_1463" data-name="Group 1463" transform="translate(0)">
    <g id="Group_1462" data-name="Group 1462">
      <path id="Path_1039" data-name="Path 1039" d="M301.335,44.557a4.155,4.155,0,0,1,5.8-5.805l-1.051,1.036.921.935,1.055-1.04a4.154,4.154,0,0,1-5.8,5.8l3.819-3.837-.93-.925Z" transform="translate(-300.539 -37.955)" fill="#a4a4a4"/>
    </g>
  </g>
  <g id="Group_1465" data-name="Group 1465" transform="translate(5.935 5.935)">
    <g id="Group_1464" data-name="Group 1464">
      <path id="Path_1040" data-name="Path 1040" d="M252.011,191.106a5.444,5.444,0,0,0,1.3-2.084l.974,1.089a6.8,6.8,0,0,1-3.273,3.272l-1.088-.973A5.443,5.443,0,0,0,252.011,191.106Z" transform="translate(-249.927 -189.022)" fill="#a4a4a4"/>
    </g>
  </g>
  <g id="Group_1467" data-name="Group 1467" transform="translate(8.072 3.172)">
    <g id="Group_1466" data-name="Group 1466">
      <path id="Path_1041" data-name="Path 1041" d="M1.8,125.4a8.093,8.093,0,0,0,1.359-1.8l5.822,6.51-.773.773.041.041a1.453,1.453,0,0,0,2.055-2.055l-5.449-5.449a2.765,2.765,0,1,1,3.91-3.91l3.276,3.276-.928.928-3.276-3.276a1.453,1.453,0,1,0-2.055,2.055l5.449,5.449a2.765,2.765,0,1,1-3.91,3.91l-.041-.041-.773.773L0,126.763A8.092,8.092,0,0,0,1.8,125.4Z" transform="translate(0 -118.702)" fill="#a4a4a4"/>
    </g>
  </g>
</svg>
