<svg xmlns="http://www.w3.org/2000/svg" width="15.19" height="19.196" viewBox="0 0 15.19 19.196">
  <path id="Path_1032" data-name="Path 1032" d="M14.251,13.432H13.3V7.673A5.44,5.44,0,0,0,8.554,1.99V0h-1.9v2A5.44,5.44,0,0,0,1.909,7.673v5.759H.96a.96.96,0,0,0,0,1.92h3.8v.959a2.848,2.848,0,1,0,5.7,0v-.959h3.8a.96.96,0,0,0,0-1.92Zm-5.7,2.879a.95.95,0,1,1-1.9,0v-.959h1.9ZM11.4,13.432H3.807V7.673A3.667,3.667,0,0,1,7.6,3.834h0a3.667,3.667,0,0,1,3.8,3.839Z" transform="translate(-0.01 0.005)" fill="#fff" fill-rule="evenodd"/>
</svg>
