<?xml version="1.0" encoding="UTF-8"?>
<svg id="Layer_1" data-name="Layer 1" xmlns="http://www.w3.org/2000/svg" xmlns:xlink="http://www.w3.org/1999/xlink" viewBox="0 0 64 64">
  <defs>
    <style>
      .cls-1 {
        fill: #fff;
      }

      .cls-2 {
        filter: url(#drop-shadow-1);
      }

      .cls-3 {
        clip-path: url(#clippath);
      }

      .cls-4 {
        fill: none;
      }

      .cls-5 {
        fill: url(#linear-gradient);
      }
    </style>
    <linearGradient id="linear-gradient" x1="5.88" y1="50.22" x2="58.6" y2="13.45" gradientUnits="userSpaceOnUse">
      <stop offset="0" stop-color="#aa53d5"/>
      <stop offset="1" stop-color="#9453ef"/>
    </linearGradient>
    <filter id="drop-shadow-1" filterUnits="userSpaceOnUse">
      <feOffset dx="7" dy="7"/>
      <feGaussianBlur result="blur" stdDeviation="5"/>
      <feFlood flood-color="#000" flood-opacity=".1"/>
      <feComposite in2="blur" operator="in"/>
      <feComposite in="SourceGraphic"/>
    </filter>
    <clipPath id="clippath">
      <rect class="cls-4" x="9.35" y="7" width="45.31" height="50"/>
    </clipPath>
  </defs>
  <rect class="cls-5" x="0" width="64" height="64"/>
  <g class="cls-2">
    <g class="cls-3">
      <path class="cls-1" d="M50.36,24.52L22.37,8.19c-5.77-3.37-13.02,.8-13.02,7.48V48.33c0,6.68,7.25,10.85,13.02,7.48l27.99-16.33c5.73-3.34,5.73-11.62,0-14.96h0ZM18.17,41.15c0,.92-.75,1.66-1.66,1.66s-1.66-.75-1.66-1.66V22.84c0-.92,.75-1.66,1.66-1.66s1.66,.75,1.66,1.66v18.31Zm5.99,4.99c0,.92-.75,1.66-1.66,1.66s-1.66-.75-1.66-1.66V17.85c0-.92,.75-1.66,1.66-1.66s1.66,.75,1.66,1.66v28.3Zm6.33-11.65c0,.92-.75,1.66-1.66,1.66s-1.66-.75-1.66-1.66v-4.99c0-.92,.75-1.66,1.66-1.66s1.66,.75,1.66,1.66v4.99Zm3.5-.83c-.92,0-1.66-.75-1.66-1.66s.75-1.66,1.66-1.66,1.66,.75,1.66,1.66-.75,1.66-1.66,1.66Zm6.83,3.16c0,.92-.75,1.66-1.66,1.66s-1.66-.75-1.66-1.66v-9.66c0-.92,.75-1.66,1.66-1.66s1.66,.75,1.66,1.66v9.66Zm5.66-2.33c0,.92-.75,1.66-1.66,1.66s-1.66-.75-1.66-1.66v-4.99c0-.92,.75-1.66,1.66-1.66s1.66,.75,1.66,1.66v4.99Z"/>
    </g>
  </g>
</svg>