<svg xmlns="http://www.w3.org/2000/svg" width="18.014" height="14.711" viewBox="0 0 18.014 14.711">
  <g id="add" transform="translate(-1661 -737)">
    <g id="folder" transform="translate(1661 737)">
      <path id="Path_982" data-name="Path 982" d="M5.6,23.5a.17.17,0,0,0-.164.125L2,32.207v.3c0,.22-.014.3.17.3H15.607a.762.762,0,0,0,.736-.544l3.07-8.462v-.3Z" transform="translate(-1.399 -18.096)" fill="#fff"/>
      <path id="Path_983" data-name="Path 983" d="M3.822,10.3h12.39V8.422a.821.821,0,0,0-.82-.82H7.96l-1.5-2.1H.82A.821.821,0,0,0,0,6.32V18.868l3.087-8.021A.762.762,0,0,1,3.822,10.3Z" transform="translate(0 -5.5)" fill="#fff"/>
    </g>
  </g>
</svg>
