<svg xmlns="http://www.w3.org/2000/svg" width="20.874" height="20.874" viewBox="0 0 20.874 20.874">
  <g id="facebook-app-logo" transform="translate(0 -0.001)">
    <path id="Path_992" data-name="Path 992" d="M19.721,0H1.152A1.152,1.152,0,0,0,0,1.153V19.722a1.153,1.153,0,0,0,1.152,1.153h10V12.791H8.429V9.641h2.72V7.317A3.8,3.8,0,0,1,15.2,3.153a22.561,22.561,0,0,1,2.43.124V6.094H15.962c-1.308,0-1.56.622-1.56,1.534V9.639h3.12l-.408,3.15H14.4v8.084h5.319a1.153,1.153,0,0,0,1.153-1.152V1.152A1.152,1.152,0,0,0,19.721,0Z" transform="translate(0)" fill="#a4a4a4"/>
  </g>
</svg>
