<svg id="instagram" xmlns="http://www.w3.org/2000/svg" width="20.992" height="20.992" viewBox="0 0 20.992 20.992">
  <path id="Path_993" data-name="Path 993" d="M17.917,0H3.075A3.079,3.079,0,0,0,0,3.075V17.917a3.079,3.079,0,0,0,3.075,3.075H17.917a3.079,3.079,0,0,0,3.075-3.075V3.075A3.079,3.079,0,0,0,17.917,0Zm-7.38,15.99a5.535,5.535,0,1,1,5.535-5.535A5.541,5.541,0,0,1,10.537,15.99Zm6.15-9.84A1.845,1.845,0,1,1,18.532,4.3,1.847,1.847,0,0,1,16.687,6.15Zm0,0" fill="#a4a4a4"/>
  <path id="Path_994" data-name="Path 994" d="M392.615,90a.615.615,0,1,0,.615.615A.615.615,0,0,0,392.615,90Zm0,0" transform="translate(-375.928 -86.31)" fill="#a4a4a4"/>
  <path id="Path_995" data-name="Path 995" d="M156.3,150a4.3,4.3,0,1,0,4.3,4.3A4.31,4.31,0,0,0,156.3,150Zm0,0" transform="translate(-145.768 -143.85)" fill="#a4a4a4"/>
</svg>
