<svg xmlns="http://www.w3.org/2000/svg" xmlns:xlink="http://www.w3.org/1999/xlink" width="88.202" height="78.44" viewBox="0 0 88.202 78.44">
  <defs>
    <filter id="Path_1008" x="0" y="0" width="88.202" height="78.44" filterUnits="userSpaceOnUse">
      <feOffset dy="3" input="SourceAlpha"/>
      <feGaussianBlur stdDeviation="3" result="blur"/>
      <feFlood flood-opacity="0.161"/>
      <feComposite operator="in" in2="blur"/>
      <feComposite in="SourceGraphic"/>
    </filter>
  </defs>
  <g id="karaoke" transform="translate(9 6)">
    <ellipse id="Ellipse_3" data-name="Ellipse 3" cx="1.12" cy="1.12" rx="1.12" ry="1.12" transform="translate(5.481 15.1)" fill="#fff"/>
    <ellipse id="Ellipse_4" data-name="Ellipse 4" cx="1.12" cy="1.12" rx="1.12" ry="1.12" transform="translate(5.481 8.763)" fill="#fff"/>
    <g transform="matrix(1, 0, 0, 1, -9, -6)" filter="url(#Path_1008)">
      <path id="Path_1008-2" data-name="Path 1008" d="M3.532,56.75A14.564,14.564,0,0,1,14.564,32.677a14.455,14.455,0,0,1,9.507,3.53l.3-.3a1.12,1.12,0,0,1,1.572,1.6l-.293.289a14.454,14.454,0,0,1,3.477,9.444q0,.676-.061,1.341L60.155,83.328a1.12,1.12,0,0,1-.043,1.539l-3.169,3.169.637.637a6.083,6.083,0,1,0,8.6-8.6L45.142,59.029A8.324,8.324,0,0,1,56.914,47.256L69.877,60.219,68.293,61.8,55.33,48.841a6.083,6.083,0,1,0-8.6,8.6L67.768,78.486A8.324,8.324,0,0,1,56,90.257l-.637-.637L52.19,92.789a1.12,1.12,0,0,1-1.539.043L20.853,66.17l-4.947-4.426q-.665.06-1.342.061a14.454,14.454,0,0,1-9.443-3.476l-.294.3a1.12,1.12,0,1,1-1.588-1.581l.293-.294ZM51.355,90.455l3.21-3.21,3.212-3.212L32.988,56.325a20.6,20.6,0,0,1-9.339,9.339l27.707,24.79ZM21.829,64.037a18.333,18.333,0,0,0,9.531-9.531l-2.82-3.152a14.611,14.611,0,0,1-9.863,9.863Zm-7.266-4.473a12.323,12.323,0,0,0,9.485-20.189L21.687,41.7a1.12,1.12,0,0,1-1.572-1.6l2.352-2.318A12.321,12.321,0,0,0,5.12,55.155L16.939,43.282a1.12,1.12,0,0,1,1.588,1.581L6.708,56.735a12.23,12.23,0,0,0,7.856,2.829Z" transform="translate(9 -26.68)" fill="#fff"/>
    </g>
  </g>
</svg>
