<svg xmlns="http://www.w3.org/2000/svg" xmlns:xlink="http://www.w3.org/1999/xlink" width="73.69" height="78.216" viewBox="0 0 73.69 78.216">
  <defs>
    <filter id="music" x="0" y="0" width="73.69" height="78.216" filterUnits="userSpaceOnUse">
      <feOffset dy="3" input="SourceAlpha"/>
      <feGaussianBlur stdDeviation="3" result="blur"/>
      <feFlood flood-opacity="0.161"/>
      <feComposite operator="in" in2="blur"/>
      <feComposite in="SourceGraphic"/>
    </filter>
  </defs>
  <g transform="matrix(1, 0, 0, 1, 0, 0)" filter="url(#music)">
    <path id="music-2" data-name="music" d="M79.048,13.264V1.705A1.708,1.708,0,0,0,78.336.33,1.816,1.816,0,0,0,76.771.078l-35.3,10.94a1.713,1.713,0,0,0-1.216,1.628v33.7a12.552,12.552,0,0,0-13.725.227,6.785,6.785,0,0,0,0,11.483,11.942,11.942,0,0,0,7.024,2.158,11.941,11.941,0,0,0,7.024-2.158,7.117,7.117,0,0,0,3.169-5.741V25.466L75.555,15.6v19.76a12.552,12.552,0,0,0-13.725.227,6.785,6.785,0,0,0,0,11.483,12.512,12.512,0,0,0,14.049,0,7.117,7.117,0,0,0,3.169-5.741V13.264Zm-45.5,43.545c-3.635,0-6.7-2.057-6.7-4.492s3.066-4.492,6.7-4.492,6.7,2.057,6.7,4.492S37.187,56.809,33.552,56.809ZM43.745,21.882v-8l31.81-9.855v8ZM68.867,45.819c-3.635,0-6.7-2.057-6.7-4.492s3.066-4.492,6.7-4.492,6.7,2.057,6.7,4.492S72.489,45.819,68.867,45.819Z" transform="translate(-14.36 6)" fill="#fff"/>
  </g>
</svg>
