<svg xmlns="http://www.w3.org/2000/svg" width="18.988" height="23.996" viewBox="0 0 18.988 23.996">
  <path id="noti" d="M17.812,16.792H16.625v-7.2a6.8,6.8,0,0,0-5.934-7.1V0H8.317V2.489a6.8,6.8,0,0,0-5.933,7.1v7.2H1.2a1.2,1.2,0,0,0,0,2.4H5.944v1.2a3.561,3.561,0,1,0,7.121,0v-1.2h4.747a1.2,1.2,0,0,0,0-2.4Zm-7.121,3.6a1.187,1.187,0,1,1-2.374,0v-1.2h2.374Zm3.56-3.6H4.757v-7.2A4.584,4.584,0,0,1,9.5,4.794h0a4.584,4.584,0,0,1,4.746,4.8Z" transform="translate(-0.01 0.005)" fill="#fff" fill-rule="evenodd"/>
</svg>
