<svg xmlns="http://www.w3.org/2000/svg" xmlns:xlink="http://www.w3.org/1999/xlink" width="69" height="78.009" viewBox="0 0 69 78.009">
  <defs>
    <filter id="Path_1010" x="0" y="0" width="57.295" height="78.009" filterUnits="userSpaceOnUse">
      <feOffset dy="3" input="SourceAlpha"/>
      <feGaussianBlur stdDeviation="3" result="blur"/>
      <feFlood flood-opacity="0.161"/>
      <feComposite operator="in" in2="blur"/>
      <feComposite in="SourceGraphic"/>
    </filter>
  </defs>
  <g id="ringtone" transform="translate(8.5 6)">
    <g transform="matrix(1, 0, 0, 1, -8.5, -6)" filter="url(#Path_1010)">
      <path id="Path_1010-2" data-name="Path 1010" d="M33.329,0H6.966A6.473,6.473,0,0,0,.5,6.466V53.544a6.473,6.473,0,0,0,6.466,6.466H33.329A6.473,6.473,0,0,0,39.8,53.544V6.466A6.473,6.473,0,0,0,33.329,0ZM6.966,3.516H33.329a2.953,2.953,0,0,1,2.95,2.949V41.428H4.016V6.466a2.953,2.953,0,0,1,2.95-2.949ZM33.329,56.493H6.966a2.953,2.953,0,0,1-2.95-2.949v-8.6H36.279v8.6a2.953,2.953,0,0,1-2.95,2.949Zm0,0" transform="translate(8.5 6)" fill="#fff"/>
    </g>
    <path id="Path_1011" data-name="Path 1011" d="M386.615,206.831a1.758,1.758,0,0,0,0,2.486,3.99,3.99,0,0,1,0,5.644,1.758,1.758,0,1,0,2.486,2.486,7.506,7.506,0,0,0,0-10.616,1.758,1.758,0,0,0-2.486,0Zm0,0" transform="translate(-340.406 -182.135)" fill="#fff"/>
    <path id="Path_1012" data-name="Path 1012" d="M442.4,137.462a1.758,1.758,0,0,0-2.487,2.486,15.508,15.508,0,0,1,0,21.905,1.758,1.758,0,1,0,2.487,2.486,19.028,19.028,0,0,0,0-26.878Zm0,0" transform="translate(-387.46 -120.896)" fill="#fff"/>
    <path id="Path_1013" data-name="Path 1013" d="M133.614,393.633a4.583,4.583,0,1,0,4.583,4.583A4.588,4.588,0,0,0,133.614,393.633Zm0,5.65a1.067,1.067,0,1,1,1.067-1.067A1.068,1.068,0,0,1,133.614,399.283Zm0,0" transform="translate(-113.467 -347.497)" fill="#fff"/>
  </g>
</svg>
