<svg xmlns="http://www.w3.org/2000/svg" width="18.022" height="18.176" viewBox="0 0 18.022 18.176">
  <g id="share" transform="translate(-2.006)">
    <g id="Group_2" data-name="Group 2" transform="translate(2.006)">
      <path id="Path_985" data-name="Path 985" d="M16.714,11.552a3.29,3.29,0,0,0-2.587,1.269L8.5,9.945a3.291,3.291,0,0,0,.127-.857,3.263,3.263,0,0,0-.151-.929l5.6-2.863A3.3,3.3,0,1,0,13.4,3.311a3.276,3.276,0,0,0,.127.86L7.908,7.047a3.309,3.309,0,1,0,.049,4.023l5.6,2.863a3.271,3.271,0,0,0-.151.932,3.312,3.312,0,1,0,3.312-3.312Z" transform="translate(-2.006)" fill="#fff"/>
    </g>
  </g>
</svg>
