<svg xmlns="http://www.w3.org/2000/svg" width="18.388" height="18.339" viewBox="0 0 18.388 18.339">
  <path id="star" d="M17.988,9.358a1.4,1.4,0,0,0,.334-1.407,1.326,1.326,0,0,0-1.065-.934L12.8,6.343a.584.584,0,0,1-.438-.332l-1.99-4.2a1.3,1.3,0,0,0-2.365,0L6.02,6.012a.584.584,0,0,1-.439.332L1.13,7.017a1.326,1.326,0,0,0-1.065.934A1.4,1.4,0,0,0,.4,9.358L3.62,12.627a.622.622,0,0,1,.168.537l-.76,4.616a1.384,1.384,0,0,0,.288,1.113,1.3,1.3,0,0,0,1.626.334l3.982-2.179a.575.575,0,0,1,.542,0l3.982,2.179a1.264,1.264,0,0,0,.613.16,1.3,1.3,0,0,0,1.012-.494,1.383,1.383,0,0,0,.288-1.113l-.76-4.616a.622.622,0,0,1,.168-.537Z" transform="translate(0.001 -1.047)" fill="#fff"/>
</svg>
