<svg id="twitter-logo-on-black-background" xmlns="http://www.w3.org/2000/svg" width="20.971" height="21.142" viewBox="0 0 20.971 21.142">
  <g id="post-twitter">
    <path id="Path_996" data-name="Path 996" d="M18.874,0H2.1A2.112,2.112,0,0,0,0,2.114V19.028a2.112,2.112,0,0,0,2.1,2.114H18.874a2.112,2.112,0,0,0,2.1-2.114V2.114A2.112,2.112,0,0,0,18.874,0ZM16.462,7.717c-.1,4.863-3.146,8.245-7.759,8.457A7.587,7.587,0,0,1,4.194,14.9a5.534,5.534,0,0,0,4.089-1.163,2.836,2.836,0,0,1-2.621-2.008,4.2,4.2,0,0,0,1.153,0,2.875,2.875,0,0,1-2.2-2.854A2.1,2.1,0,0,0,5.767,9.2a3.142,3.142,0,0,1-.839-3.806A8.288,8.288,0,0,0,10.7,8.351c-.734-2.96,3.251-4.545,4.823-2.537A7.026,7.026,0,0,0,17.3,5.18a2.987,2.987,0,0,1-1.153,1.586,5.973,5.973,0,0,0,1.468-.423C17.511,6.871,16.986,7.294,16.462,7.717Z" fill="#a4a4a4"/>
  </g>
</svg>
