<svg xmlns="http://www.w3.org/2000/svg" width="25.189" height="17.318" viewBox="0 0 25.189 17.318">
  <g id="youtube" transform="translate(0 -80)">
    <g id="Group_8" data-name="Group 8" transform="translate(0 80)">
      <path id="Path_997" data-name="Path 997" d="M24.119,81.669c-.683-1.215-1.425-1.439-2.935-1.524-1.508-.1-5.3-.145-8.586-.145s-7.086.043-8.593.143-2.25.309-2.939,1.526S0,84.973,0,88.654v.013c0,3.665.362,5.771,1.066,6.973S2.5,97.075,4,97.177s5.3.14,8.594.14,7.078-.052,8.588-.139c1.51-.1,2.251-.323,2.935-1.538.71-1.2,1.069-3.308,1.069-6.973v-.013C25.189,84.973,24.83,82.883,24.119,81.669ZM9.446,93.382V83.936l7.872,4.723Z" transform="translate(0 -80)" fill="#a4a4a4"/>
    </g>
  </g>
</svg>
